%TF.GenerationSoftware,KiCad,Pcbnew,(5.1.12)-1*%
%TF.CreationDate,2022-02-01T21:13:27-05:00*%
%TF.ProjectId,Lobotomizer-LPF,4c6f626f-746f-46d6-997a-65722d4c5046,rev?*%
%TF.SameCoordinates,Original*%
%TF.FileFunction,Copper,L1,Top*%
%TF.FilePolarity,Positive*%
%FSLAX46Y46*%
G04 Gerber Fmt 4.6, Leading zero omitted, Abs format (unit mm)*
G04 Created by KiCad (PCBNEW (5.1.12)-1) date 2022-02-01 21:13:27*
%MOMM*%
%LPD*%
G01*
G04 APERTURE LIST*
%TA.AperFunction,ComponentPad*%
%ADD10O,1.600000X1.600000*%
%TD*%
%TA.AperFunction,ComponentPad*%
%ADD11C,1.600000*%
%TD*%
%TA.AperFunction,ComponentPad*%
%ADD12O,2.400000X1.600000*%
%TD*%
%TA.AperFunction,ComponentPad*%
%ADD13R,2.400000X1.600000*%
%TD*%
%TA.AperFunction,ComponentPad*%
%ADD14C,1.440000*%
%TD*%
%TA.AperFunction,ComponentPad*%
%ADD15O,1.700000X1.700000*%
%TD*%
%TA.AperFunction,ComponentPad*%
%ADD16R,1.700000X1.700000*%
%TD*%
%TA.AperFunction,Conductor*%
%ADD17C,0.250000*%
%TD*%
%TA.AperFunction,Conductor*%
%ADD18C,0.254000*%
%TD*%
%TA.AperFunction,Conductor*%
%ADD19C,0.100000*%
%TD*%
G04 APERTURE END LIST*
D10*
%TO.P,R4,2*%
%TO.N,GND*%
X143256000Y-69596000D03*
D11*
%TO.P,R4,1*%
%TO.N,Net-(R4-Pad1)*%
X143256000Y-77216000D03*
%TD*%
D10*
%TO.P,R1,2*%
%TO.N,Net-(J1-Pad2)*%
X119380000Y-77470000D03*
D11*
%TO.P,R1,1*%
%TO.N,Net-(C1-Pad1)*%
X129540000Y-77470000D03*
%TD*%
D12*
%TO.P,U1,8*%
%TO.N,+9V*%
X139954000Y-72136000D03*
%TO.P,U1,4*%
%TO.N,GND*%
X132334000Y-79756000D03*
%TO.P,U1,7*%
%TO.N,Net-(J2-Pad2)*%
X139954000Y-74676000D03*
%TO.P,U1,3*%
%TO.N,Net-(C1-Pad1)*%
X132334000Y-77216000D03*
%TO.P,U1,6*%
%TO.N,Net-(R4-Pad1)*%
X139954000Y-77216000D03*
%TO.P,U1,2*%
%TO.N,Net-(R2-Pad1)*%
X132334000Y-74676000D03*
%TO.P,U1,5*%
%TO.N,Net-(C2-Pad1)*%
X139954000Y-79756000D03*
D13*
%TO.P,U1,1*%
%TO.N,Net-(R3-Pad2)*%
X132334000Y-72136000D03*
%TD*%
D14*
%TO.P,RV1,3*%
%TO.N,Net-(R3-Pad2)*%
X124714000Y-72136000D03*
%TO.P,RV1,2*%
%TO.N,Net-(R2-Pad1)*%
X124714000Y-69596000D03*
%TO.P,RV1,1*%
%TO.N,GND*%
X124714000Y-67056000D03*
%TD*%
D10*
%TO.P,R5,2*%
%TO.N,Net-(R4-Pad1)*%
X143256000Y-80010000D03*
D11*
%TO.P,R5,1*%
%TO.N,Net-(J2-Pad2)*%
X150876000Y-80010000D03*
%TD*%
D10*
%TO.P,R3,2*%
%TO.N,Net-(R3-Pad2)*%
X132334000Y-68834000D03*
D11*
%TO.P,R3,1*%
%TO.N,Net-(C2-Pad1)*%
X139954000Y-68834000D03*
%TD*%
D10*
%TO.P,R2,2*%
%TO.N,GND*%
X129032000Y-67056000D03*
D11*
%TO.P,R2,1*%
%TO.N,Net-(R2-Pad1)*%
X129032000Y-74676000D03*
%TD*%
D15*
%TO.P,J3,2*%
%TO.N,+9V*%
X143510000Y-66040000D03*
D16*
%TO.P,J3,1*%
%TO.N,GND*%
X146050000Y-66040000D03*
%TD*%
D15*
%TO.P,J2,2*%
%TO.N,Net-(J2-Pad2)*%
X150114000Y-76454000D03*
D16*
%TO.P,J2,1*%
%TO.N,GND*%
X150114000Y-73914000D03*
%TD*%
D15*
%TO.P,J1,2*%
%TO.N,Net-(J1-Pad2)*%
X119380000Y-73660000D03*
D16*
%TO.P,J1,1*%
%TO.N,GND*%
X119380000Y-71120000D03*
%TD*%
D11*
%TO.P,C2,2*%
%TO.N,GND*%
X144954000Y-82804000D03*
%TO.P,C2,1*%
%TO.N,Net-(C2-Pad1)*%
X139954000Y-82804000D03*
%TD*%
%TO.P,C1,2*%
%TO.N,GND*%
X124540000Y-80772000D03*
%TO.P,C1,1*%
%TO.N,Net-(C1-Pad1)*%
X129540000Y-80772000D03*
%TD*%
D17*
%TO.N,Net-(C1-Pad1)*%
X129540000Y-80772000D02*
X129540000Y-77470000D01*
X132080000Y-77470000D02*
X132334000Y-77216000D01*
X129540000Y-77470000D02*
X132080000Y-77470000D01*
%TO.N,Net-(C2-Pad1)*%
X138428990Y-78230990D02*
X139954000Y-79756000D01*
X138428990Y-70359010D02*
X138428990Y-78230990D01*
X139954000Y-68834000D02*
X138428990Y-70359010D01*
X139954000Y-79756000D02*
X139954000Y-82804000D01*
%TO.N,Net-(J1-Pad2)*%
X119380000Y-73660000D02*
X119380000Y-77470000D01*
%TO.N,Net-(R2-Pad1)*%
X129032000Y-73914000D02*
X129032000Y-74676000D01*
X124714000Y-69596000D02*
X129032000Y-73914000D01*
X129032000Y-74676000D02*
X132334000Y-74676000D01*
%TO.N,Net-(R3-Pad2)*%
X132334000Y-68834000D02*
X132334000Y-72136000D01*
X128748999Y-68550999D02*
X132334000Y-72136000D01*
X124212399Y-68550999D02*
X128748999Y-68550999D01*
X123668999Y-69094399D02*
X124212399Y-68550999D01*
X123668999Y-71090999D02*
X123668999Y-69094399D01*
X124714000Y-72136000D02*
X123668999Y-71090999D01*
%TO.N,Net-(R4-Pad1)*%
X143256000Y-80010000D02*
X143256000Y-77216000D01*
X143256000Y-77216000D02*
X139954000Y-77216000D01*
%TO.N,Net-(J2-Pad2)*%
X148336000Y-74676000D02*
X139954000Y-74676000D01*
X150114000Y-76454000D02*
X148336000Y-74676000D01*
X150876000Y-77216000D02*
X150114000Y-76454000D01*
X150876000Y-80010000D02*
X150876000Y-77216000D01*
%TD*%
D18*
%TO.N,GND*%
X151715001Y-78844743D02*
X151636000Y-78791957D01*
X151636000Y-77253325D01*
X151639676Y-77216000D01*
X151636000Y-77178675D01*
X151636000Y-77178667D01*
X151625003Y-77067014D01*
X151581546Y-76923753D01*
X151547371Y-76859816D01*
X151599000Y-76600260D01*
X151599000Y-76307740D01*
X151541932Y-76020842D01*
X151429990Y-75750589D01*
X151267475Y-75507368D01*
X151135620Y-75375513D01*
X151208180Y-75353502D01*
X151318494Y-75294537D01*
X151415185Y-75215185D01*
X151494537Y-75118494D01*
X151553502Y-75008180D01*
X151589812Y-74888482D01*
X151602072Y-74764000D01*
X151599000Y-74199750D01*
X151440250Y-74041000D01*
X150241000Y-74041000D01*
X150241000Y-74061000D01*
X149987000Y-74061000D01*
X149987000Y-74041000D01*
X148787750Y-74041000D01*
X148775352Y-74053398D01*
X148760276Y-74041026D01*
X148628247Y-73970454D01*
X148484986Y-73926997D01*
X148373333Y-73916000D01*
X148373322Y-73916000D01*
X148336000Y-73912324D01*
X148298678Y-73916000D01*
X141574901Y-73916000D01*
X141552932Y-73874899D01*
X141373608Y-73656392D01*
X141155101Y-73477068D01*
X141022142Y-73406000D01*
X141155101Y-73334932D01*
X141373608Y-73155608D01*
X141448788Y-73064000D01*
X148625928Y-73064000D01*
X148629000Y-73628250D01*
X148787750Y-73787000D01*
X149987000Y-73787000D01*
X149987000Y-72587750D01*
X150241000Y-72587750D01*
X150241000Y-73787000D01*
X151440250Y-73787000D01*
X151599000Y-73628250D01*
X151602072Y-73064000D01*
X151589812Y-72939518D01*
X151553502Y-72819820D01*
X151494537Y-72709506D01*
X151415185Y-72612815D01*
X151318494Y-72533463D01*
X151208180Y-72474498D01*
X151088482Y-72438188D01*
X150964000Y-72425928D01*
X150399750Y-72429000D01*
X150241000Y-72587750D01*
X149987000Y-72587750D01*
X149828250Y-72429000D01*
X149264000Y-72425928D01*
X149139518Y-72438188D01*
X149019820Y-72474498D01*
X148909506Y-72533463D01*
X148812815Y-72612815D01*
X148733463Y-72709506D01*
X148674498Y-72819820D01*
X148638188Y-72939518D01*
X148625928Y-73064000D01*
X141448788Y-73064000D01*
X141552932Y-72937101D01*
X141686182Y-72687808D01*
X141768236Y-72417309D01*
X141795943Y-72136000D01*
X141768236Y-71854691D01*
X141686182Y-71584192D01*
X141552932Y-71334899D01*
X141373608Y-71116392D01*
X141155101Y-70937068D01*
X140905808Y-70803818D01*
X140635309Y-70721764D01*
X140424492Y-70701000D01*
X139483508Y-70701000D01*
X139272691Y-70721764D01*
X139188990Y-70747154D01*
X139188990Y-70673811D01*
X139630114Y-70232688D01*
X139812665Y-70269000D01*
X140095335Y-70269000D01*
X140372574Y-70213853D01*
X140633727Y-70105680D01*
X140868759Y-69948637D01*
X140872356Y-69945040D01*
X141864091Y-69945040D01*
X141958930Y-70209881D01*
X142103615Y-70451131D01*
X142292586Y-70659519D01*
X142518580Y-70827037D01*
X142772913Y-70947246D01*
X142906961Y-70987904D01*
X143129000Y-70865915D01*
X143129000Y-69723000D01*
X143383000Y-69723000D01*
X143383000Y-70865915D01*
X143605039Y-70987904D01*
X143739087Y-70947246D01*
X143993420Y-70827037D01*
X144219414Y-70659519D01*
X144408385Y-70451131D01*
X144553070Y-70209881D01*
X144647909Y-69945040D01*
X144526624Y-69723000D01*
X143383000Y-69723000D01*
X143129000Y-69723000D01*
X141985376Y-69723000D01*
X141864091Y-69945040D01*
X140872356Y-69945040D01*
X141068637Y-69748759D01*
X141225680Y-69513727D01*
X141333853Y-69252574D01*
X141334969Y-69246960D01*
X141864091Y-69246960D01*
X141985376Y-69469000D01*
X143129000Y-69469000D01*
X143129000Y-68326085D01*
X143383000Y-68326085D01*
X143383000Y-69469000D01*
X144526624Y-69469000D01*
X144647909Y-69246960D01*
X144553070Y-68982119D01*
X144408385Y-68740869D01*
X144219414Y-68532481D01*
X143993420Y-68364963D01*
X143739087Y-68244754D01*
X143605039Y-68204096D01*
X143383000Y-68326085D01*
X143129000Y-68326085D01*
X142906961Y-68204096D01*
X142772913Y-68244754D01*
X142518580Y-68364963D01*
X142292586Y-68532481D01*
X142103615Y-68740869D01*
X141958930Y-68982119D01*
X141864091Y-69246960D01*
X141334969Y-69246960D01*
X141389000Y-68975335D01*
X141389000Y-68692665D01*
X141333853Y-68415426D01*
X141225680Y-68154273D01*
X141068637Y-67919241D01*
X140868759Y-67719363D01*
X140633727Y-67562320D01*
X140372574Y-67454147D01*
X140095335Y-67399000D01*
X139812665Y-67399000D01*
X139535426Y-67454147D01*
X139274273Y-67562320D01*
X139039241Y-67719363D01*
X138839363Y-67919241D01*
X138682320Y-68154273D01*
X138574147Y-68415426D01*
X138519000Y-68692665D01*
X138519000Y-68975335D01*
X138555312Y-69157886D01*
X137917993Y-69795206D01*
X137888989Y-69819009D01*
X137856929Y-69858075D01*
X137794016Y-69934734D01*
X137748293Y-70020276D01*
X137723444Y-70066764D01*
X137679987Y-70210025D01*
X137668990Y-70321678D01*
X137668990Y-70321688D01*
X137665314Y-70359010D01*
X137668990Y-70396332D01*
X137668991Y-78193658D01*
X137665314Y-78230990D01*
X137668991Y-78268323D01*
X137675129Y-78330637D01*
X137679988Y-78379975D01*
X137723444Y-78523236D01*
X137794016Y-78655266D01*
X137864935Y-78741680D01*
X137888990Y-78770991D01*
X137917988Y-78794789D01*
X138258592Y-79135393D01*
X138221818Y-79204192D01*
X138139764Y-79474691D01*
X138112057Y-79756000D01*
X138139764Y-80037309D01*
X138221818Y-80307808D01*
X138355068Y-80557101D01*
X138534392Y-80775608D01*
X138752899Y-80954932D01*
X139002192Y-81088182D01*
X139194000Y-81146366D01*
X139194001Y-81585956D01*
X139039241Y-81689363D01*
X138839363Y-81889241D01*
X138682320Y-82124273D01*
X138574147Y-82385426D01*
X138519000Y-82662665D01*
X138519000Y-82945335D01*
X138574147Y-83222574D01*
X138682320Y-83483727D01*
X138839363Y-83718759D01*
X139039241Y-83918637D01*
X139274273Y-84075680D01*
X139535426Y-84183853D01*
X139812665Y-84239000D01*
X140095335Y-84239000D01*
X140372574Y-84183853D01*
X140633727Y-84075680D01*
X140868759Y-83918637D01*
X140990694Y-83796702D01*
X144140903Y-83796702D01*
X144212486Y-84040671D01*
X144467996Y-84161571D01*
X144742184Y-84230300D01*
X145024512Y-84244217D01*
X145304130Y-84202787D01*
X145570292Y-84107603D01*
X145695514Y-84040671D01*
X145767097Y-83796702D01*
X144954000Y-82983605D01*
X144140903Y-83796702D01*
X140990694Y-83796702D01*
X141068637Y-83718759D01*
X141225680Y-83483727D01*
X141333853Y-83222574D01*
X141389000Y-82945335D01*
X141389000Y-82874512D01*
X143513783Y-82874512D01*
X143555213Y-83154130D01*
X143650397Y-83420292D01*
X143717329Y-83545514D01*
X143961298Y-83617097D01*
X144774395Y-82804000D01*
X145133605Y-82804000D01*
X145946702Y-83617097D01*
X146190671Y-83545514D01*
X146311571Y-83290004D01*
X146380300Y-83015816D01*
X146394217Y-82733488D01*
X146352787Y-82453870D01*
X146257603Y-82187708D01*
X146190671Y-82062486D01*
X145946702Y-81990903D01*
X145133605Y-82804000D01*
X144774395Y-82804000D01*
X143961298Y-81990903D01*
X143717329Y-82062486D01*
X143596429Y-82317996D01*
X143527700Y-82592184D01*
X143513783Y-82874512D01*
X141389000Y-82874512D01*
X141389000Y-82662665D01*
X141333853Y-82385426D01*
X141225680Y-82124273D01*
X141068637Y-81889241D01*
X140990694Y-81811298D01*
X144140903Y-81811298D01*
X144954000Y-82624395D01*
X145767097Y-81811298D01*
X145695514Y-81567329D01*
X145440004Y-81446429D01*
X145165816Y-81377700D01*
X144883488Y-81363783D01*
X144603870Y-81405213D01*
X144337708Y-81500397D01*
X144212486Y-81567329D01*
X144140903Y-81811298D01*
X140990694Y-81811298D01*
X140868759Y-81689363D01*
X140714000Y-81585957D01*
X140714000Y-81146366D01*
X140905808Y-81088182D01*
X141155101Y-80954932D01*
X141373608Y-80775608D01*
X141552932Y-80557101D01*
X141686182Y-80307808D01*
X141768236Y-80037309D01*
X141795943Y-79756000D01*
X141768236Y-79474691D01*
X141686182Y-79204192D01*
X141552932Y-78954899D01*
X141373608Y-78736392D01*
X141155101Y-78557068D01*
X141022142Y-78486000D01*
X141155101Y-78414932D01*
X141373608Y-78235608D01*
X141552932Y-78017101D01*
X141574901Y-77976000D01*
X142037957Y-77976000D01*
X142141363Y-78130759D01*
X142341241Y-78330637D01*
X142496001Y-78434044D01*
X142496000Y-78791956D01*
X142341241Y-78895363D01*
X142141363Y-79095241D01*
X141984320Y-79330273D01*
X141876147Y-79591426D01*
X141821000Y-79868665D01*
X141821000Y-80151335D01*
X141876147Y-80428574D01*
X141984320Y-80689727D01*
X142141363Y-80924759D01*
X142341241Y-81124637D01*
X142576273Y-81281680D01*
X142837426Y-81389853D01*
X143114665Y-81445000D01*
X143397335Y-81445000D01*
X143674574Y-81389853D01*
X143935727Y-81281680D01*
X144170759Y-81124637D01*
X144370637Y-80924759D01*
X144527680Y-80689727D01*
X144635853Y-80428574D01*
X144691000Y-80151335D01*
X144691000Y-79868665D01*
X144635853Y-79591426D01*
X144527680Y-79330273D01*
X144370637Y-79095241D01*
X144170759Y-78895363D01*
X144016000Y-78791957D01*
X144016000Y-78434043D01*
X144170759Y-78330637D01*
X144370637Y-78130759D01*
X144527680Y-77895727D01*
X144635853Y-77634574D01*
X144691000Y-77357335D01*
X144691000Y-77074665D01*
X144635853Y-76797426D01*
X144527680Y-76536273D01*
X144370637Y-76301241D01*
X144170759Y-76101363D01*
X143935727Y-75944320D01*
X143674574Y-75836147D01*
X143397335Y-75781000D01*
X143114665Y-75781000D01*
X142837426Y-75836147D01*
X142576273Y-75944320D01*
X142341241Y-76101363D01*
X142141363Y-76301241D01*
X142037957Y-76456000D01*
X141574901Y-76456000D01*
X141552932Y-76414899D01*
X141373608Y-76196392D01*
X141155101Y-76017068D01*
X141022142Y-75946000D01*
X141155101Y-75874932D01*
X141373608Y-75695608D01*
X141552932Y-75477101D01*
X141574901Y-75436000D01*
X148021199Y-75436000D01*
X148672790Y-76087592D01*
X148629000Y-76307740D01*
X148629000Y-76600260D01*
X148686068Y-76887158D01*
X148798010Y-77157411D01*
X148960525Y-77400632D01*
X149167368Y-77607475D01*
X149410589Y-77769990D01*
X149680842Y-77881932D01*
X149967740Y-77939000D01*
X150116001Y-77939000D01*
X150116000Y-78791956D01*
X149961241Y-78895363D01*
X149761363Y-79095241D01*
X149604320Y-79330273D01*
X149496147Y-79591426D01*
X149441000Y-79868665D01*
X149441000Y-80151335D01*
X149496147Y-80428574D01*
X149604320Y-80689727D01*
X149761363Y-80924759D01*
X149961241Y-81124637D01*
X150196273Y-81281680D01*
X150457426Y-81389853D01*
X150734665Y-81445000D01*
X151017335Y-81445000D01*
X151294574Y-81389853D01*
X151555727Y-81281680D01*
X151715001Y-81175257D01*
X151715001Y-84405000D01*
X117525000Y-84405000D01*
X117525000Y-81764702D01*
X123726903Y-81764702D01*
X123798486Y-82008671D01*
X124053996Y-82129571D01*
X124328184Y-82198300D01*
X124610512Y-82212217D01*
X124890130Y-82170787D01*
X125156292Y-82075603D01*
X125281514Y-82008671D01*
X125353097Y-81764702D01*
X124540000Y-80951605D01*
X123726903Y-81764702D01*
X117525000Y-81764702D01*
X117525000Y-80842512D01*
X123099783Y-80842512D01*
X123141213Y-81122130D01*
X123236397Y-81388292D01*
X123303329Y-81513514D01*
X123547298Y-81585097D01*
X124360395Y-80772000D01*
X124719605Y-80772000D01*
X125532702Y-81585097D01*
X125776671Y-81513514D01*
X125897571Y-81258004D01*
X125966300Y-80983816D01*
X125980217Y-80701488D01*
X125938787Y-80421870D01*
X125843603Y-80155708D01*
X125776671Y-80030486D01*
X125532702Y-79958903D01*
X124719605Y-80772000D01*
X124360395Y-80772000D01*
X123547298Y-79958903D01*
X123303329Y-80030486D01*
X123182429Y-80285996D01*
X123113700Y-80560184D01*
X123099783Y-80842512D01*
X117525000Y-80842512D01*
X117525000Y-79779298D01*
X123726903Y-79779298D01*
X124540000Y-80592395D01*
X125353097Y-79779298D01*
X125281514Y-79535329D01*
X125026004Y-79414429D01*
X124751816Y-79345700D01*
X124469488Y-79331783D01*
X124189870Y-79373213D01*
X123923708Y-79468397D01*
X123798486Y-79535329D01*
X123726903Y-79779298D01*
X117525000Y-79779298D01*
X117525000Y-71970000D01*
X117891928Y-71970000D01*
X117904188Y-72094482D01*
X117940498Y-72214180D01*
X117999463Y-72324494D01*
X118078815Y-72421185D01*
X118175506Y-72500537D01*
X118285820Y-72559502D01*
X118358380Y-72581513D01*
X118226525Y-72713368D01*
X118064010Y-72956589D01*
X117952068Y-73226842D01*
X117895000Y-73513740D01*
X117895000Y-73806260D01*
X117952068Y-74093158D01*
X118064010Y-74363411D01*
X118226525Y-74606632D01*
X118433368Y-74813475D01*
X118620000Y-74938179D01*
X118620001Y-76251956D01*
X118465241Y-76355363D01*
X118265363Y-76555241D01*
X118108320Y-76790273D01*
X118000147Y-77051426D01*
X117945000Y-77328665D01*
X117945000Y-77611335D01*
X118000147Y-77888574D01*
X118108320Y-78149727D01*
X118265363Y-78384759D01*
X118465241Y-78584637D01*
X118700273Y-78741680D01*
X118961426Y-78849853D01*
X119238665Y-78905000D01*
X119521335Y-78905000D01*
X119798574Y-78849853D01*
X120059727Y-78741680D01*
X120294759Y-78584637D01*
X120494637Y-78384759D01*
X120651680Y-78149727D01*
X120759853Y-77888574D01*
X120815000Y-77611335D01*
X120815000Y-77328665D01*
X120759853Y-77051426D01*
X120651680Y-76790273D01*
X120494637Y-76555241D01*
X120294759Y-76355363D01*
X120140000Y-76251957D01*
X120140000Y-74938178D01*
X120326632Y-74813475D01*
X120533475Y-74606632D01*
X120695990Y-74363411D01*
X120807932Y-74093158D01*
X120865000Y-73806260D01*
X120865000Y-73513740D01*
X120807932Y-73226842D01*
X120695990Y-72956589D01*
X120533475Y-72713368D01*
X120401620Y-72581513D01*
X120474180Y-72559502D01*
X120584494Y-72500537D01*
X120681185Y-72421185D01*
X120760537Y-72324494D01*
X120819502Y-72214180D01*
X120855812Y-72094482D01*
X120868072Y-71970000D01*
X120865000Y-71405750D01*
X120706250Y-71247000D01*
X119507000Y-71247000D01*
X119507000Y-71267000D01*
X119253000Y-71267000D01*
X119253000Y-71247000D01*
X118053750Y-71247000D01*
X117895000Y-71405750D01*
X117891928Y-71970000D01*
X117525000Y-71970000D01*
X117525000Y-70270000D01*
X117891928Y-70270000D01*
X117895000Y-70834250D01*
X118053750Y-70993000D01*
X119253000Y-70993000D01*
X119253000Y-69793750D01*
X119507000Y-69793750D01*
X119507000Y-70993000D01*
X120706250Y-70993000D01*
X120865000Y-70834250D01*
X120868072Y-70270000D01*
X120855812Y-70145518D01*
X120819502Y-70025820D01*
X120760537Y-69915506D01*
X120681185Y-69818815D01*
X120584494Y-69739463D01*
X120474180Y-69680498D01*
X120354482Y-69644188D01*
X120230000Y-69631928D01*
X119665750Y-69635000D01*
X119507000Y-69793750D01*
X119253000Y-69793750D01*
X119094250Y-69635000D01*
X118530000Y-69631928D01*
X118405518Y-69644188D01*
X118285820Y-69680498D01*
X118175506Y-69739463D01*
X118078815Y-69818815D01*
X117999463Y-69915506D01*
X117940498Y-70025820D01*
X117904188Y-70145518D01*
X117891928Y-70270000D01*
X117525000Y-70270000D01*
X117525000Y-69094399D01*
X122905323Y-69094399D01*
X122909000Y-69131731D01*
X122908999Y-71053676D01*
X122905323Y-71090999D01*
X122908999Y-71128321D01*
X122908999Y-71128331D01*
X122919996Y-71239984D01*
X122948788Y-71334899D01*
X122963453Y-71383245D01*
X123034025Y-71515275D01*
X123073870Y-71563825D01*
X123128998Y-71631000D01*
X123158001Y-71654803D01*
X123383346Y-71880147D01*
X123359000Y-72002544D01*
X123359000Y-72269456D01*
X123411072Y-72531239D01*
X123513215Y-72777833D01*
X123661503Y-72999762D01*
X123850238Y-73188497D01*
X124072167Y-73336785D01*
X124318761Y-73438928D01*
X124580544Y-73491000D01*
X124847456Y-73491000D01*
X125109239Y-73438928D01*
X125355833Y-73336785D01*
X125577762Y-73188497D01*
X125766497Y-72999762D01*
X125914785Y-72777833D01*
X126016928Y-72531239D01*
X126069000Y-72269456D01*
X126069000Y-72025801D01*
X127872132Y-73828934D01*
X127760320Y-73996273D01*
X127652147Y-74257426D01*
X127597000Y-74534665D01*
X127597000Y-74817335D01*
X127652147Y-75094574D01*
X127760320Y-75355727D01*
X127917363Y-75590759D01*
X128117241Y-75790637D01*
X128352273Y-75947680D01*
X128613426Y-76055853D01*
X128890665Y-76111000D01*
X129071082Y-76111000D01*
X128860273Y-76198320D01*
X128625241Y-76355363D01*
X128425363Y-76555241D01*
X128268320Y-76790273D01*
X128160147Y-77051426D01*
X128105000Y-77328665D01*
X128105000Y-77611335D01*
X128160147Y-77888574D01*
X128268320Y-78149727D01*
X128425363Y-78384759D01*
X128625241Y-78584637D01*
X128780001Y-78688044D01*
X128780000Y-79553956D01*
X128625241Y-79657363D01*
X128425363Y-79857241D01*
X128268320Y-80092273D01*
X128160147Y-80353426D01*
X128105000Y-80630665D01*
X128105000Y-80913335D01*
X128160147Y-81190574D01*
X128268320Y-81451727D01*
X128425363Y-81686759D01*
X128625241Y-81886637D01*
X128860273Y-82043680D01*
X129121426Y-82151853D01*
X129398665Y-82207000D01*
X129681335Y-82207000D01*
X129958574Y-82151853D01*
X130219727Y-82043680D01*
X130454759Y-81886637D01*
X130654637Y-81686759D01*
X130811680Y-81451727D01*
X130919853Y-81190574D01*
X130975000Y-80913335D01*
X130975000Y-80823541D01*
X131031161Y-80878601D01*
X131267517Y-81033166D01*
X131529486Y-81138650D01*
X131807000Y-81191000D01*
X132207000Y-81191000D01*
X132207000Y-79883000D01*
X132461000Y-79883000D01*
X132461000Y-81191000D01*
X132861000Y-81191000D01*
X133138514Y-81138650D01*
X133400483Y-81033166D01*
X133636839Y-80878601D01*
X133838500Y-80680895D01*
X133997715Y-80447646D01*
X134108367Y-80187818D01*
X134125904Y-80105039D01*
X134003915Y-79883000D01*
X132461000Y-79883000D01*
X132207000Y-79883000D01*
X132187000Y-79883000D01*
X132187000Y-79629000D01*
X132207000Y-79629000D01*
X132207000Y-79609000D01*
X132461000Y-79609000D01*
X132461000Y-79629000D01*
X134003915Y-79629000D01*
X134125904Y-79406961D01*
X134108367Y-79324182D01*
X133997715Y-79064354D01*
X133838500Y-78831105D01*
X133636839Y-78633399D01*
X133407259Y-78483265D01*
X133535101Y-78414932D01*
X133753608Y-78235608D01*
X133932932Y-78017101D01*
X134066182Y-77767808D01*
X134148236Y-77497309D01*
X134175943Y-77216000D01*
X134148236Y-76934691D01*
X134066182Y-76664192D01*
X133932932Y-76414899D01*
X133753608Y-76196392D01*
X133535101Y-76017068D01*
X133402142Y-75946000D01*
X133535101Y-75874932D01*
X133753608Y-75695608D01*
X133932932Y-75477101D01*
X134066182Y-75227808D01*
X134148236Y-74957309D01*
X134175943Y-74676000D01*
X134148236Y-74394691D01*
X134066182Y-74124192D01*
X133932932Y-73874899D01*
X133753608Y-73656392D01*
X133640518Y-73563581D01*
X133658482Y-73561812D01*
X133778180Y-73525502D01*
X133888494Y-73466537D01*
X133985185Y-73387185D01*
X134064537Y-73290494D01*
X134123502Y-73180180D01*
X134159812Y-73060482D01*
X134172072Y-72936000D01*
X134172072Y-71336000D01*
X134159812Y-71211518D01*
X134123502Y-71091820D01*
X134064537Y-70981506D01*
X133985185Y-70884815D01*
X133888494Y-70805463D01*
X133778180Y-70746498D01*
X133658482Y-70710188D01*
X133534000Y-70697928D01*
X133094000Y-70697928D01*
X133094000Y-70052043D01*
X133248759Y-69948637D01*
X133448637Y-69748759D01*
X133605680Y-69513727D01*
X133713853Y-69252574D01*
X133769000Y-68975335D01*
X133769000Y-68692665D01*
X133713853Y-68415426D01*
X133605680Y-68154273D01*
X133448637Y-67919241D01*
X133248759Y-67719363D01*
X133013727Y-67562320D01*
X132752574Y-67454147D01*
X132475335Y-67399000D01*
X132192665Y-67399000D01*
X131915426Y-67454147D01*
X131654273Y-67562320D01*
X131419241Y-67719363D01*
X131219363Y-67919241D01*
X131062320Y-68154273D01*
X130954147Y-68415426D01*
X130899000Y-68692665D01*
X130899000Y-68975335D01*
X130954147Y-69252574D01*
X131062320Y-69513727D01*
X131219363Y-69748759D01*
X131419241Y-69948637D01*
X131574000Y-70052044D01*
X131574000Y-70301199D01*
X129627103Y-68354302D01*
X129769420Y-68287037D01*
X129995414Y-68119519D01*
X130184385Y-67911131D01*
X130329070Y-67669881D01*
X130423909Y-67405040D01*
X130302624Y-67183000D01*
X129159000Y-67183000D01*
X129159000Y-67203000D01*
X128905000Y-67203000D01*
X128905000Y-67183000D01*
X127761376Y-67183000D01*
X127640091Y-67405040D01*
X127734930Y-67669881D01*
X127807568Y-67790999D01*
X125729409Y-67790999D01*
X125885368Y-67750068D01*
X125998266Y-67508210D01*
X126061811Y-67248973D01*
X126073561Y-66982320D01*
X126033063Y-66718499D01*
X126028869Y-66706960D01*
X127640091Y-66706960D01*
X127761376Y-66929000D01*
X128905000Y-66929000D01*
X128905000Y-65786085D01*
X129159000Y-65786085D01*
X129159000Y-66929000D01*
X130302624Y-66929000D01*
X130423909Y-66706960D01*
X130329070Y-66442119D01*
X130184385Y-66200869D01*
X129995414Y-65992481D01*
X129862206Y-65893740D01*
X142025000Y-65893740D01*
X142025000Y-66186260D01*
X142082068Y-66473158D01*
X142194010Y-66743411D01*
X142356525Y-66986632D01*
X142563368Y-67193475D01*
X142806589Y-67355990D01*
X143076842Y-67467932D01*
X143363740Y-67525000D01*
X143656260Y-67525000D01*
X143943158Y-67467932D01*
X144213411Y-67355990D01*
X144456632Y-67193475D01*
X144588487Y-67061620D01*
X144610498Y-67134180D01*
X144669463Y-67244494D01*
X144748815Y-67341185D01*
X144845506Y-67420537D01*
X144955820Y-67479502D01*
X145075518Y-67515812D01*
X145200000Y-67528072D01*
X145764250Y-67525000D01*
X145923000Y-67366250D01*
X145923000Y-66167000D01*
X146177000Y-66167000D01*
X146177000Y-67366250D01*
X146335750Y-67525000D01*
X146900000Y-67528072D01*
X147024482Y-67515812D01*
X147144180Y-67479502D01*
X147254494Y-67420537D01*
X147351185Y-67341185D01*
X147430537Y-67244494D01*
X147489502Y-67134180D01*
X147525812Y-67014482D01*
X147538072Y-66890000D01*
X147535000Y-66325750D01*
X147376250Y-66167000D01*
X146177000Y-66167000D01*
X145923000Y-66167000D01*
X145903000Y-66167000D01*
X145903000Y-65913000D01*
X145923000Y-65913000D01*
X145923000Y-64713750D01*
X146177000Y-64713750D01*
X146177000Y-65913000D01*
X147376250Y-65913000D01*
X147535000Y-65754250D01*
X147538072Y-65190000D01*
X147525812Y-65065518D01*
X147489502Y-64945820D01*
X147430537Y-64835506D01*
X147351185Y-64738815D01*
X147254494Y-64659463D01*
X147144180Y-64600498D01*
X147024482Y-64564188D01*
X146900000Y-64551928D01*
X146335750Y-64555000D01*
X146177000Y-64713750D01*
X145923000Y-64713750D01*
X145764250Y-64555000D01*
X145200000Y-64551928D01*
X145075518Y-64564188D01*
X144955820Y-64600498D01*
X144845506Y-64659463D01*
X144748815Y-64738815D01*
X144669463Y-64835506D01*
X144610498Y-64945820D01*
X144588487Y-65018380D01*
X144456632Y-64886525D01*
X144213411Y-64724010D01*
X143943158Y-64612068D01*
X143656260Y-64555000D01*
X143363740Y-64555000D01*
X143076842Y-64612068D01*
X142806589Y-64724010D01*
X142563368Y-64886525D01*
X142356525Y-65093368D01*
X142194010Y-65336589D01*
X142082068Y-65606842D01*
X142025000Y-65893740D01*
X129862206Y-65893740D01*
X129769420Y-65824963D01*
X129515087Y-65704754D01*
X129381039Y-65664096D01*
X129159000Y-65786085D01*
X128905000Y-65786085D01*
X128682961Y-65664096D01*
X128548913Y-65704754D01*
X128294580Y-65824963D01*
X128068586Y-65992481D01*
X127879615Y-66200869D01*
X127734930Y-66442119D01*
X127640091Y-66706960D01*
X126028869Y-66706960D01*
X125941875Y-66467647D01*
X125885368Y-66361932D01*
X125649560Y-66300045D01*
X124893605Y-67056000D01*
X124907748Y-67070143D01*
X124728143Y-67249748D01*
X124714000Y-67235605D01*
X124699858Y-67249748D01*
X124520253Y-67070143D01*
X124534395Y-67056000D01*
X123778440Y-66300045D01*
X123542632Y-66361932D01*
X123429734Y-66603790D01*
X123366189Y-66863027D01*
X123354439Y-67129680D01*
X123394937Y-67393501D01*
X123486125Y-67644353D01*
X123542632Y-67750068D01*
X123778438Y-67811954D01*
X123661865Y-67928527D01*
X123711910Y-67978572D01*
X123672398Y-68010998D01*
X123648599Y-68039997D01*
X123157997Y-68530600D01*
X123128999Y-68554398D01*
X123105201Y-68583396D01*
X123105200Y-68583397D01*
X123034025Y-68670123D01*
X122963453Y-68802153D01*
X122919997Y-68945414D01*
X122905323Y-69094399D01*
X117525000Y-69094399D01*
X117525000Y-66120440D01*
X123958045Y-66120440D01*
X124714000Y-66876395D01*
X125469955Y-66120440D01*
X125408068Y-65884632D01*
X125166210Y-65771734D01*
X124906973Y-65708189D01*
X124640320Y-65696439D01*
X124376499Y-65736937D01*
X124125647Y-65828125D01*
X124019932Y-65884632D01*
X123958045Y-66120440D01*
X117525000Y-66120440D01*
X117525000Y-64185000D01*
X151715000Y-64185000D01*
X151715001Y-78844743D01*
%TA.AperFunction,Conductor*%
D19*
G36*
X151715001Y-78844743D02*
G01*
X151636000Y-78791957D01*
X151636000Y-77253325D01*
X151639676Y-77216000D01*
X151636000Y-77178675D01*
X151636000Y-77178667D01*
X151625003Y-77067014D01*
X151581546Y-76923753D01*
X151547371Y-76859816D01*
X151599000Y-76600260D01*
X151599000Y-76307740D01*
X151541932Y-76020842D01*
X151429990Y-75750589D01*
X151267475Y-75507368D01*
X151135620Y-75375513D01*
X151208180Y-75353502D01*
X151318494Y-75294537D01*
X151415185Y-75215185D01*
X151494537Y-75118494D01*
X151553502Y-75008180D01*
X151589812Y-74888482D01*
X151602072Y-74764000D01*
X151599000Y-74199750D01*
X151440250Y-74041000D01*
X150241000Y-74041000D01*
X150241000Y-74061000D01*
X149987000Y-74061000D01*
X149987000Y-74041000D01*
X148787750Y-74041000D01*
X148775352Y-74053398D01*
X148760276Y-74041026D01*
X148628247Y-73970454D01*
X148484986Y-73926997D01*
X148373333Y-73916000D01*
X148373322Y-73916000D01*
X148336000Y-73912324D01*
X148298678Y-73916000D01*
X141574901Y-73916000D01*
X141552932Y-73874899D01*
X141373608Y-73656392D01*
X141155101Y-73477068D01*
X141022142Y-73406000D01*
X141155101Y-73334932D01*
X141373608Y-73155608D01*
X141448788Y-73064000D01*
X148625928Y-73064000D01*
X148629000Y-73628250D01*
X148787750Y-73787000D01*
X149987000Y-73787000D01*
X149987000Y-72587750D01*
X150241000Y-72587750D01*
X150241000Y-73787000D01*
X151440250Y-73787000D01*
X151599000Y-73628250D01*
X151602072Y-73064000D01*
X151589812Y-72939518D01*
X151553502Y-72819820D01*
X151494537Y-72709506D01*
X151415185Y-72612815D01*
X151318494Y-72533463D01*
X151208180Y-72474498D01*
X151088482Y-72438188D01*
X150964000Y-72425928D01*
X150399750Y-72429000D01*
X150241000Y-72587750D01*
X149987000Y-72587750D01*
X149828250Y-72429000D01*
X149264000Y-72425928D01*
X149139518Y-72438188D01*
X149019820Y-72474498D01*
X148909506Y-72533463D01*
X148812815Y-72612815D01*
X148733463Y-72709506D01*
X148674498Y-72819820D01*
X148638188Y-72939518D01*
X148625928Y-73064000D01*
X141448788Y-73064000D01*
X141552932Y-72937101D01*
X141686182Y-72687808D01*
X141768236Y-72417309D01*
X141795943Y-72136000D01*
X141768236Y-71854691D01*
X141686182Y-71584192D01*
X141552932Y-71334899D01*
X141373608Y-71116392D01*
X141155101Y-70937068D01*
X140905808Y-70803818D01*
X140635309Y-70721764D01*
X140424492Y-70701000D01*
X139483508Y-70701000D01*
X139272691Y-70721764D01*
X139188990Y-70747154D01*
X139188990Y-70673811D01*
X139630114Y-70232688D01*
X139812665Y-70269000D01*
X140095335Y-70269000D01*
X140372574Y-70213853D01*
X140633727Y-70105680D01*
X140868759Y-69948637D01*
X140872356Y-69945040D01*
X141864091Y-69945040D01*
X141958930Y-70209881D01*
X142103615Y-70451131D01*
X142292586Y-70659519D01*
X142518580Y-70827037D01*
X142772913Y-70947246D01*
X142906961Y-70987904D01*
X143129000Y-70865915D01*
X143129000Y-69723000D01*
X143383000Y-69723000D01*
X143383000Y-70865915D01*
X143605039Y-70987904D01*
X143739087Y-70947246D01*
X143993420Y-70827037D01*
X144219414Y-70659519D01*
X144408385Y-70451131D01*
X144553070Y-70209881D01*
X144647909Y-69945040D01*
X144526624Y-69723000D01*
X143383000Y-69723000D01*
X143129000Y-69723000D01*
X141985376Y-69723000D01*
X141864091Y-69945040D01*
X140872356Y-69945040D01*
X141068637Y-69748759D01*
X141225680Y-69513727D01*
X141333853Y-69252574D01*
X141334969Y-69246960D01*
X141864091Y-69246960D01*
X141985376Y-69469000D01*
X143129000Y-69469000D01*
X143129000Y-68326085D01*
X143383000Y-68326085D01*
X143383000Y-69469000D01*
X144526624Y-69469000D01*
X144647909Y-69246960D01*
X144553070Y-68982119D01*
X144408385Y-68740869D01*
X144219414Y-68532481D01*
X143993420Y-68364963D01*
X143739087Y-68244754D01*
X143605039Y-68204096D01*
X143383000Y-68326085D01*
X143129000Y-68326085D01*
X142906961Y-68204096D01*
X142772913Y-68244754D01*
X142518580Y-68364963D01*
X142292586Y-68532481D01*
X142103615Y-68740869D01*
X141958930Y-68982119D01*
X141864091Y-69246960D01*
X141334969Y-69246960D01*
X141389000Y-68975335D01*
X141389000Y-68692665D01*
X141333853Y-68415426D01*
X141225680Y-68154273D01*
X141068637Y-67919241D01*
X140868759Y-67719363D01*
X140633727Y-67562320D01*
X140372574Y-67454147D01*
X140095335Y-67399000D01*
X139812665Y-67399000D01*
X139535426Y-67454147D01*
X139274273Y-67562320D01*
X139039241Y-67719363D01*
X138839363Y-67919241D01*
X138682320Y-68154273D01*
X138574147Y-68415426D01*
X138519000Y-68692665D01*
X138519000Y-68975335D01*
X138555312Y-69157886D01*
X137917993Y-69795206D01*
X137888989Y-69819009D01*
X137856929Y-69858075D01*
X137794016Y-69934734D01*
X137748293Y-70020276D01*
X137723444Y-70066764D01*
X137679987Y-70210025D01*
X137668990Y-70321678D01*
X137668990Y-70321688D01*
X137665314Y-70359010D01*
X137668990Y-70396332D01*
X137668991Y-78193658D01*
X137665314Y-78230990D01*
X137668991Y-78268323D01*
X137675129Y-78330637D01*
X137679988Y-78379975D01*
X137723444Y-78523236D01*
X137794016Y-78655266D01*
X137864935Y-78741680D01*
X137888990Y-78770991D01*
X137917988Y-78794789D01*
X138258592Y-79135393D01*
X138221818Y-79204192D01*
X138139764Y-79474691D01*
X138112057Y-79756000D01*
X138139764Y-80037309D01*
X138221818Y-80307808D01*
X138355068Y-80557101D01*
X138534392Y-80775608D01*
X138752899Y-80954932D01*
X139002192Y-81088182D01*
X139194000Y-81146366D01*
X139194001Y-81585956D01*
X139039241Y-81689363D01*
X138839363Y-81889241D01*
X138682320Y-82124273D01*
X138574147Y-82385426D01*
X138519000Y-82662665D01*
X138519000Y-82945335D01*
X138574147Y-83222574D01*
X138682320Y-83483727D01*
X138839363Y-83718759D01*
X139039241Y-83918637D01*
X139274273Y-84075680D01*
X139535426Y-84183853D01*
X139812665Y-84239000D01*
X140095335Y-84239000D01*
X140372574Y-84183853D01*
X140633727Y-84075680D01*
X140868759Y-83918637D01*
X140990694Y-83796702D01*
X144140903Y-83796702D01*
X144212486Y-84040671D01*
X144467996Y-84161571D01*
X144742184Y-84230300D01*
X145024512Y-84244217D01*
X145304130Y-84202787D01*
X145570292Y-84107603D01*
X145695514Y-84040671D01*
X145767097Y-83796702D01*
X144954000Y-82983605D01*
X144140903Y-83796702D01*
X140990694Y-83796702D01*
X141068637Y-83718759D01*
X141225680Y-83483727D01*
X141333853Y-83222574D01*
X141389000Y-82945335D01*
X141389000Y-82874512D01*
X143513783Y-82874512D01*
X143555213Y-83154130D01*
X143650397Y-83420292D01*
X143717329Y-83545514D01*
X143961298Y-83617097D01*
X144774395Y-82804000D01*
X145133605Y-82804000D01*
X145946702Y-83617097D01*
X146190671Y-83545514D01*
X146311571Y-83290004D01*
X146380300Y-83015816D01*
X146394217Y-82733488D01*
X146352787Y-82453870D01*
X146257603Y-82187708D01*
X146190671Y-82062486D01*
X145946702Y-81990903D01*
X145133605Y-82804000D01*
X144774395Y-82804000D01*
X143961298Y-81990903D01*
X143717329Y-82062486D01*
X143596429Y-82317996D01*
X143527700Y-82592184D01*
X143513783Y-82874512D01*
X141389000Y-82874512D01*
X141389000Y-82662665D01*
X141333853Y-82385426D01*
X141225680Y-82124273D01*
X141068637Y-81889241D01*
X140990694Y-81811298D01*
X144140903Y-81811298D01*
X144954000Y-82624395D01*
X145767097Y-81811298D01*
X145695514Y-81567329D01*
X145440004Y-81446429D01*
X145165816Y-81377700D01*
X144883488Y-81363783D01*
X144603870Y-81405213D01*
X144337708Y-81500397D01*
X144212486Y-81567329D01*
X144140903Y-81811298D01*
X140990694Y-81811298D01*
X140868759Y-81689363D01*
X140714000Y-81585957D01*
X140714000Y-81146366D01*
X140905808Y-81088182D01*
X141155101Y-80954932D01*
X141373608Y-80775608D01*
X141552932Y-80557101D01*
X141686182Y-80307808D01*
X141768236Y-80037309D01*
X141795943Y-79756000D01*
X141768236Y-79474691D01*
X141686182Y-79204192D01*
X141552932Y-78954899D01*
X141373608Y-78736392D01*
X141155101Y-78557068D01*
X141022142Y-78486000D01*
X141155101Y-78414932D01*
X141373608Y-78235608D01*
X141552932Y-78017101D01*
X141574901Y-77976000D01*
X142037957Y-77976000D01*
X142141363Y-78130759D01*
X142341241Y-78330637D01*
X142496001Y-78434044D01*
X142496000Y-78791956D01*
X142341241Y-78895363D01*
X142141363Y-79095241D01*
X141984320Y-79330273D01*
X141876147Y-79591426D01*
X141821000Y-79868665D01*
X141821000Y-80151335D01*
X141876147Y-80428574D01*
X141984320Y-80689727D01*
X142141363Y-80924759D01*
X142341241Y-81124637D01*
X142576273Y-81281680D01*
X142837426Y-81389853D01*
X143114665Y-81445000D01*
X143397335Y-81445000D01*
X143674574Y-81389853D01*
X143935727Y-81281680D01*
X144170759Y-81124637D01*
X144370637Y-80924759D01*
X144527680Y-80689727D01*
X144635853Y-80428574D01*
X144691000Y-80151335D01*
X144691000Y-79868665D01*
X144635853Y-79591426D01*
X144527680Y-79330273D01*
X144370637Y-79095241D01*
X144170759Y-78895363D01*
X144016000Y-78791957D01*
X144016000Y-78434043D01*
X144170759Y-78330637D01*
X144370637Y-78130759D01*
X144527680Y-77895727D01*
X144635853Y-77634574D01*
X144691000Y-77357335D01*
X144691000Y-77074665D01*
X144635853Y-76797426D01*
X144527680Y-76536273D01*
X144370637Y-76301241D01*
X144170759Y-76101363D01*
X143935727Y-75944320D01*
X143674574Y-75836147D01*
X143397335Y-75781000D01*
X143114665Y-75781000D01*
X142837426Y-75836147D01*
X142576273Y-75944320D01*
X142341241Y-76101363D01*
X142141363Y-76301241D01*
X142037957Y-76456000D01*
X141574901Y-76456000D01*
X141552932Y-76414899D01*
X141373608Y-76196392D01*
X141155101Y-76017068D01*
X141022142Y-75946000D01*
X141155101Y-75874932D01*
X141373608Y-75695608D01*
X141552932Y-75477101D01*
X141574901Y-75436000D01*
X148021199Y-75436000D01*
X148672790Y-76087592D01*
X148629000Y-76307740D01*
X148629000Y-76600260D01*
X148686068Y-76887158D01*
X148798010Y-77157411D01*
X148960525Y-77400632D01*
X149167368Y-77607475D01*
X149410589Y-77769990D01*
X149680842Y-77881932D01*
X149967740Y-77939000D01*
X150116001Y-77939000D01*
X150116000Y-78791956D01*
X149961241Y-78895363D01*
X149761363Y-79095241D01*
X149604320Y-79330273D01*
X149496147Y-79591426D01*
X149441000Y-79868665D01*
X149441000Y-80151335D01*
X149496147Y-80428574D01*
X149604320Y-80689727D01*
X149761363Y-80924759D01*
X149961241Y-81124637D01*
X150196273Y-81281680D01*
X150457426Y-81389853D01*
X150734665Y-81445000D01*
X151017335Y-81445000D01*
X151294574Y-81389853D01*
X151555727Y-81281680D01*
X151715001Y-81175257D01*
X151715001Y-84405000D01*
X117525000Y-84405000D01*
X117525000Y-81764702D01*
X123726903Y-81764702D01*
X123798486Y-82008671D01*
X124053996Y-82129571D01*
X124328184Y-82198300D01*
X124610512Y-82212217D01*
X124890130Y-82170787D01*
X125156292Y-82075603D01*
X125281514Y-82008671D01*
X125353097Y-81764702D01*
X124540000Y-80951605D01*
X123726903Y-81764702D01*
X117525000Y-81764702D01*
X117525000Y-80842512D01*
X123099783Y-80842512D01*
X123141213Y-81122130D01*
X123236397Y-81388292D01*
X123303329Y-81513514D01*
X123547298Y-81585097D01*
X124360395Y-80772000D01*
X124719605Y-80772000D01*
X125532702Y-81585097D01*
X125776671Y-81513514D01*
X125897571Y-81258004D01*
X125966300Y-80983816D01*
X125980217Y-80701488D01*
X125938787Y-80421870D01*
X125843603Y-80155708D01*
X125776671Y-80030486D01*
X125532702Y-79958903D01*
X124719605Y-80772000D01*
X124360395Y-80772000D01*
X123547298Y-79958903D01*
X123303329Y-80030486D01*
X123182429Y-80285996D01*
X123113700Y-80560184D01*
X123099783Y-80842512D01*
X117525000Y-80842512D01*
X117525000Y-79779298D01*
X123726903Y-79779298D01*
X124540000Y-80592395D01*
X125353097Y-79779298D01*
X125281514Y-79535329D01*
X125026004Y-79414429D01*
X124751816Y-79345700D01*
X124469488Y-79331783D01*
X124189870Y-79373213D01*
X123923708Y-79468397D01*
X123798486Y-79535329D01*
X123726903Y-79779298D01*
X117525000Y-79779298D01*
X117525000Y-71970000D01*
X117891928Y-71970000D01*
X117904188Y-72094482D01*
X117940498Y-72214180D01*
X117999463Y-72324494D01*
X118078815Y-72421185D01*
X118175506Y-72500537D01*
X118285820Y-72559502D01*
X118358380Y-72581513D01*
X118226525Y-72713368D01*
X118064010Y-72956589D01*
X117952068Y-73226842D01*
X117895000Y-73513740D01*
X117895000Y-73806260D01*
X117952068Y-74093158D01*
X118064010Y-74363411D01*
X118226525Y-74606632D01*
X118433368Y-74813475D01*
X118620000Y-74938179D01*
X118620001Y-76251956D01*
X118465241Y-76355363D01*
X118265363Y-76555241D01*
X118108320Y-76790273D01*
X118000147Y-77051426D01*
X117945000Y-77328665D01*
X117945000Y-77611335D01*
X118000147Y-77888574D01*
X118108320Y-78149727D01*
X118265363Y-78384759D01*
X118465241Y-78584637D01*
X118700273Y-78741680D01*
X118961426Y-78849853D01*
X119238665Y-78905000D01*
X119521335Y-78905000D01*
X119798574Y-78849853D01*
X120059727Y-78741680D01*
X120294759Y-78584637D01*
X120494637Y-78384759D01*
X120651680Y-78149727D01*
X120759853Y-77888574D01*
X120815000Y-77611335D01*
X120815000Y-77328665D01*
X120759853Y-77051426D01*
X120651680Y-76790273D01*
X120494637Y-76555241D01*
X120294759Y-76355363D01*
X120140000Y-76251957D01*
X120140000Y-74938178D01*
X120326632Y-74813475D01*
X120533475Y-74606632D01*
X120695990Y-74363411D01*
X120807932Y-74093158D01*
X120865000Y-73806260D01*
X120865000Y-73513740D01*
X120807932Y-73226842D01*
X120695990Y-72956589D01*
X120533475Y-72713368D01*
X120401620Y-72581513D01*
X120474180Y-72559502D01*
X120584494Y-72500537D01*
X120681185Y-72421185D01*
X120760537Y-72324494D01*
X120819502Y-72214180D01*
X120855812Y-72094482D01*
X120868072Y-71970000D01*
X120865000Y-71405750D01*
X120706250Y-71247000D01*
X119507000Y-71247000D01*
X119507000Y-71267000D01*
X119253000Y-71267000D01*
X119253000Y-71247000D01*
X118053750Y-71247000D01*
X117895000Y-71405750D01*
X117891928Y-71970000D01*
X117525000Y-71970000D01*
X117525000Y-70270000D01*
X117891928Y-70270000D01*
X117895000Y-70834250D01*
X118053750Y-70993000D01*
X119253000Y-70993000D01*
X119253000Y-69793750D01*
X119507000Y-69793750D01*
X119507000Y-70993000D01*
X120706250Y-70993000D01*
X120865000Y-70834250D01*
X120868072Y-70270000D01*
X120855812Y-70145518D01*
X120819502Y-70025820D01*
X120760537Y-69915506D01*
X120681185Y-69818815D01*
X120584494Y-69739463D01*
X120474180Y-69680498D01*
X120354482Y-69644188D01*
X120230000Y-69631928D01*
X119665750Y-69635000D01*
X119507000Y-69793750D01*
X119253000Y-69793750D01*
X119094250Y-69635000D01*
X118530000Y-69631928D01*
X118405518Y-69644188D01*
X118285820Y-69680498D01*
X118175506Y-69739463D01*
X118078815Y-69818815D01*
X117999463Y-69915506D01*
X117940498Y-70025820D01*
X117904188Y-70145518D01*
X117891928Y-70270000D01*
X117525000Y-70270000D01*
X117525000Y-69094399D01*
X122905323Y-69094399D01*
X122909000Y-69131731D01*
X122908999Y-71053676D01*
X122905323Y-71090999D01*
X122908999Y-71128321D01*
X122908999Y-71128331D01*
X122919996Y-71239984D01*
X122948788Y-71334899D01*
X122963453Y-71383245D01*
X123034025Y-71515275D01*
X123073870Y-71563825D01*
X123128998Y-71631000D01*
X123158001Y-71654803D01*
X123383346Y-71880147D01*
X123359000Y-72002544D01*
X123359000Y-72269456D01*
X123411072Y-72531239D01*
X123513215Y-72777833D01*
X123661503Y-72999762D01*
X123850238Y-73188497D01*
X124072167Y-73336785D01*
X124318761Y-73438928D01*
X124580544Y-73491000D01*
X124847456Y-73491000D01*
X125109239Y-73438928D01*
X125355833Y-73336785D01*
X125577762Y-73188497D01*
X125766497Y-72999762D01*
X125914785Y-72777833D01*
X126016928Y-72531239D01*
X126069000Y-72269456D01*
X126069000Y-72025801D01*
X127872132Y-73828934D01*
X127760320Y-73996273D01*
X127652147Y-74257426D01*
X127597000Y-74534665D01*
X127597000Y-74817335D01*
X127652147Y-75094574D01*
X127760320Y-75355727D01*
X127917363Y-75590759D01*
X128117241Y-75790637D01*
X128352273Y-75947680D01*
X128613426Y-76055853D01*
X128890665Y-76111000D01*
X129071082Y-76111000D01*
X128860273Y-76198320D01*
X128625241Y-76355363D01*
X128425363Y-76555241D01*
X128268320Y-76790273D01*
X128160147Y-77051426D01*
X128105000Y-77328665D01*
X128105000Y-77611335D01*
X128160147Y-77888574D01*
X128268320Y-78149727D01*
X128425363Y-78384759D01*
X128625241Y-78584637D01*
X128780001Y-78688044D01*
X128780000Y-79553956D01*
X128625241Y-79657363D01*
X128425363Y-79857241D01*
X128268320Y-80092273D01*
X128160147Y-80353426D01*
X128105000Y-80630665D01*
X128105000Y-80913335D01*
X128160147Y-81190574D01*
X128268320Y-81451727D01*
X128425363Y-81686759D01*
X128625241Y-81886637D01*
X128860273Y-82043680D01*
X129121426Y-82151853D01*
X129398665Y-82207000D01*
X129681335Y-82207000D01*
X129958574Y-82151853D01*
X130219727Y-82043680D01*
X130454759Y-81886637D01*
X130654637Y-81686759D01*
X130811680Y-81451727D01*
X130919853Y-81190574D01*
X130975000Y-80913335D01*
X130975000Y-80823541D01*
X131031161Y-80878601D01*
X131267517Y-81033166D01*
X131529486Y-81138650D01*
X131807000Y-81191000D01*
X132207000Y-81191000D01*
X132207000Y-79883000D01*
X132461000Y-79883000D01*
X132461000Y-81191000D01*
X132861000Y-81191000D01*
X133138514Y-81138650D01*
X133400483Y-81033166D01*
X133636839Y-80878601D01*
X133838500Y-80680895D01*
X133997715Y-80447646D01*
X134108367Y-80187818D01*
X134125904Y-80105039D01*
X134003915Y-79883000D01*
X132461000Y-79883000D01*
X132207000Y-79883000D01*
X132187000Y-79883000D01*
X132187000Y-79629000D01*
X132207000Y-79629000D01*
X132207000Y-79609000D01*
X132461000Y-79609000D01*
X132461000Y-79629000D01*
X134003915Y-79629000D01*
X134125904Y-79406961D01*
X134108367Y-79324182D01*
X133997715Y-79064354D01*
X133838500Y-78831105D01*
X133636839Y-78633399D01*
X133407259Y-78483265D01*
X133535101Y-78414932D01*
X133753608Y-78235608D01*
X133932932Y-78017101D01*
X134066182Y-77767808D01*
X134148236Y-77497309D01*
X134175943Y-77216000D01*
X134148236Y-76934691D01*
X134066182Y-76664192D01*
X133932932Y-76414899D01*
X133753608Y-76196392D01*
X133535101Y-76017068D01*
X133402142Y-75946000D01*
X133535101Y-75874932D01*
X133753608Y-75695608D01*
X133932932Y-75477101D01*
X134066182Y-75227808D01*
X134148236Y-74957309D01*
X134175943Y-74676000D01*
X134148236Y-74394691D01*
X134066182Y-74124192D01*
X133932932Y-73874899D01*
X133753608Y-73656392D01*
X133640518Y-73563581D01*
X133658482Y-73561812D01*
X133778180Y-73525502D01*
X133888494Y-73466537D01*
X133985185Y-73387185D01*
X134064537Y-73290494D01*
X134123502Y-73180180D01*
X134159812Y-73060482D01*
X134172072Y-72936000D01*
X134172072Y-71336000D01*
X134159812Y-71211518D01*
X134123502Y-71091820D01*
X134064537Y-70981506D01*
X133985185Y-70884815D01*
X133888494Y-70805463D01*
X133778180Y-70746498D01*
X133658482Y-70710188D01*
X133534000Y-70697928D01*
X133094000Y-70697928D01*
X133094000Y-70052043D01*
X133248759Y-69948637D01*
X133448637Y-69748759D01*
X133605680Y-69513727D01*
X133713853Y-69252574D01*
X133769000Y-68975335D01*
X133769000Y-68692665D01*
X133713853Y-68415426D01*
X133605680Y-68154273D01*
X133448637Y-67919241D01*
X133248759Y-67719363D01*
X133013727Y-67562320D01*
X132752574Y-67454147D01*
X132475335Y-67399000D01*
X132192665Y-67399000D01*
X131915426Y-67454147D01*
X131654273Y-67562320D01*
X131419241Y-67719363D01*
X131219363Y-67919241D01*
X131062320Y-68154273D01*
X130954147Y-68415426D01*
X130899000Y-68692665D01*
X130899000Y-68975335D01*
X130954147Y-69252574D01*
X131062320Y-69513727D01*
X131219363Y-69748759D01*
X131419241Y-69948637D01*
X131574000Y-70052044D01*
X131574000Y-70301199D01*
X129627103Y-68354302D01*
X129769420Y-68287037D01*
X129995414Y-68119519D01*
X130184385Y-67911131D01*
X130329070Y-67669881D01*
X130423909Y-67405040D01*
X130302624Y-67183000D01*
X129159000Y-67183000D01*
X129159000Y-67203000D01*
X128905000Y-67203000D01*
X128905000Y-67183000D01*
X127761376Y-67183000D01*
X127640091Y-67405040D01*
X127734930Y-67669881D01*
X127807568Y-67790999D01*
X125729409Y-67790999D01*
X125885368Y-67750068D01*
X125998266Y-67508210D01*
X126061811Y-67248973D01*
X126073561Y-66982320D01*
X126033063Y-66718499D01*
X126028869Y-66706960D01*
X127640091Y-66706960D01*
X127761376Y-66929000D01*
X128905000Y-66929000D01*
X128905000Y-65786085D01*
X129159000Y-65786085D01*
X129159000Y-66929000D01*
X130302624Y-66929000D01*
X130423909Y-66706960D01*
X130329070Y-66442119D01*
X130184385Y-66200869D01*
X129995414Y-65992481D01*
X129862206Y-65893740D01*
X142025000Y-65893740D01*
X142025000Y-66186260D01*
X142082068Y-66473158D01*
X142194010Y-66743411D01*
X142356525Y-66986632D01*
X142563368Y-67193475D01*
X142806589Y-67355990D01*
X143076842Y-67467932D01*
X143363740Y-67525000D01*
X143656260Y-67525000D01*
X143943158Y-67467932D01*
X144213411Y-67355990D01*
X144456632Y-67193475D01*
X144588487Y-67061620D01*
X144610498Y-67134180D01*
X144669463Y-67244494D01*
X144748815Y-67341185D01*
X144845506Y-67420537D01*
X144955820Y-67479502D01*
X145075518Y-67515812D01*
X145200000Y-67528072D01*
X145764250Y-67525000D01*
X145923000Y-67366250D01*
X145923000Y-66167000D01*
X146177000Y-66167000D01*
X146177000Y-67366250D01*
X146335750Y-67525000D01*
X146900000Y-67528072D01*
X147024482Y-67515812D01*
X147144180Y-67479502D01*
X147254494Y-67420537D01*
X147351185Y-67341185D01*
X147430537Y-67244494D01*
X147489502Y-67134180D01*
X147525812Y-67014482D01*
X147538072Y-66890000D01*
X147535000Y-66325750D01*
X147376250Y-66167000D01*
X146177000Y-66167000D01*
X145923000Y-66167000D01*
X145903000Y-66167000D01*
X145903000Y-65913000D01*
X145923000Y-65913000D01*
X145923000Y-64713750D01*
X146177000Y-64713750D01*
X146177000Y-65913000D01*
X147376250Y-65913000D01*
X147535000Y-65754250D01*
X147538072Y-65190000D01*
X147525812Y-65065518D01*
X147489502Y-64945820D01*
X147430537Y-64835506D01*
X147351185Y-64738815D01*
X147254494Y-64659463D01*
X147144180Y-64600498D01*
X147024482Y-64564188D01*
X146900000Y-64551928D01*
X146335750Y-64555000D01*
X146177000Y-64713750D01*
X145923000Y-64713750D01*
X145764250Y-64555000D01*
X145200000Y-64551928D01*
X145075518Y-64564188D01*
X144955820Y-64600498D01*
X144845506Y-64659463D01*
X144748815Y-64738815D01*
X144669463Y-64835506D01*
X144610498Y-64945820D01*
X144588487Y-65018380D01*
X144456632Y-64886525D01*
X144213411Y-64724010D01*
X143943158Y-64612068D01*
X143656260Y-64555000D01*
X143363740Y-64555000D01*
X143076842Y-64612068D01*
X142806589Y-64724010D01*
X142563368Y-64886525D01*
X142356525Y-65093368D01*
X142194010Y-65336589D01*
X142082068Y-65606842D01*
X142025000Y-65893740D01*
X129862206Y-65893740D01*
X129769420Y-65824963D01*
X129515087Y-65704754D01*
X129381039Y-65664096D01*
X129159000Y-65786085D01*
X128905000Y-65786085D01*
X128682961Y-65664096D01*
X128548913Y-65704754D01*
X128294580Y-65824963D01*
X128068586Y-65992481D01*
X127879615Y-66200869D01*
X127734930Y-66442119D01*
X127640091Y-66706960D01*
X126028869Y-66706960D01*
X125941875Y-66467647D01*
X125885368Y-66361932D01*
X125649560Y-66300045D01*
X124893605Y-67056000D01*
X124907748Y-67070143D01*
X124728143Y-67249748D01*
X124714000Y-67235605D01*
X124699858Y-67249748D01*
X124520253Y-67070143D01*
X124534395Y-67056000D01*
X123778440Y-66300045D01*
X123542632Y-66361932D01*
X123429734Y-66603790D01*
X123366189Y-66863027D01*
X123354439Y-67129680D01*
X123394937Y-67393501D01*
X123486125Y-67644353D01*
X123542632Y-67750068D01*
X123778438Y-67811954D01*
X123661865Y-67928527D01*
X123711910Y-67978572D01*
X123672398Y-68010998D01*
X123648599Y-68039997D01*
X123157997Y-68530600D01*
X123128999Y-68554398D01*
X123105201Y-68583396D01*
X123105200Y-68583397D01*
X123034025Y-68670123D01*
X122963453Y-68802153D01*
X122919997Y-68945414D01*
X122905323Y-69094399D01*
X117525000Y-69094399D01*
X117525000Y-66120440D01*
X123958045Y-66120440D01*
X124714000Y-66876395D01*
X125469955Y-66120440D01*
X125408068Y-65884632D01*
X125166210Y-65771734D01*
X124906973Y-65708189D01*
X124640320Y-65696439D01*
X124376499Y-65736937D01*
X124125647Y-65828125D01*
X124019932Y-65884632D01*
X123958045Y-66120440D01*
X117525000Y-66120440D01*
X117525000Y-64185000D01*
X151715000Y-64185000D01*
X151715001Y-78844743D01*
G37*
%TD.AperFunction*%
%TD*%
M02*
