%TF.GenerationSoftware,KiCad,Pcbnew,(5.1.12)-1*%
%TF.CreationDate,2022-02-01T21:13:27-05:00*%
%TF.ProjectId,Lobotomizer-LPF,4c6f626f-746f-46d6-997a-65722d4c5046,rev?*%
%TF.SameCoordinates,Original*%
%TF.FileFunction,Legend,Top*%
%TF.FilePolarity,Positive*%
%FSLAX46Y46*%
G04 Gerber Fmt 4.6, Leading zero omitted, Abs format (unit mm)*
G04 Created by KiCad (PCBNEW (5.1.12)-1) date 2022-02-01 21:13:27*
%MOMM*%
%LPD*%
G01*
G04 APERTURE LIST*
%ADD10C,0.120000*%
%ADD11C,0.150000*%
G04 APERTURE END LIST*
D10*
%TO.C,R4*%
X142216000Y-76676000D02*
X141886000Y-76676000D01*
X141886000Y-76676000D02*
X141886000Y-70136000D01*
X141886000Y-70136000D02*
X142216000Y-70136000D01*
X144296000Y-76676000D02*
X144626000Y-76676000D01*
X144626000Y-76676000D02*
X144626000Y-70136000D01*
X144626000Y-70136000D02*
X144296000Y-70136000D01*
%TO.C,R1*%
X127730000Y-78840000D02*
X127730000Y-76100000D01*
X127730000Y-76100000D02*
X121190000Y-76100000D01*
X121190000Y-76100000D02*
X121190000Y-78840000D01*
X121190000Y-78840000D02*
X127730000Y-78840000D01*
X128500000Y-77470000D02*
X127730000Y-77470000D01*
X120420000Y-77470000D02*
X121190000Y-77470000D01*
%TO.C,U1*%
X137144000Y-70806000D02*
G75*
G02*
X135144000Y-70806000I-1000000J0D01*
G01*
X135144000Y-70806000D02*
X133894000Y-70806000D01*
X133894000Y-70806000D02*
X133894000Y-81086000D01*
X133894000Y-81086000D02*
X138394000Y-81086000D01*
X138394000Y-81086000D02*
X138394000Y-70806000D01*
X138394000Y-70806000D02*
X137144000Y-70806000D01*
%TO.C,RV1*%
X122434000Y-73071000D02*
X122434000Y-66121000D01*
X127174000Y-73071000D02*
X127174000Y-66121000D01*
X122434000Y-73071000D02*
X124220000Y-73071000D01*
X125210000Y-73071000D02*
X127174000Y-73071000D01*
X122434000Y-66121000D02*
X124220000Y-66121000D01*
X125210000Y-66121000D02*
X127174000Y-66121000D01*
%TO.C,R5*%
X150336000Y-81050000D02*
X150336000Y-81380000D01*
X150336000Y-81380000D02*
X143796000Y-81380000D01*
X143796000Y-81380000D02*
X143796000Y-81050000D01*
X150336000Y-78970000D02*
X150336000Y-78640000D01*
X150336000Y-78640000D02*
X143796000Y-78640000D01*
X143796000Y-78640000D02*
X143796000Y-78970000D01*
%TO.C,R3*%
X139414000Y-69874000D02*
X139414000Y-70204000D01*
X139414000Y-70204000D02*
X132874000Y-70204000D01*
X132874000Y-70204000D02*
X132874000Y-69874000D01*
X139414000Y-67794000D02*
X139414000Y-67464000D01*
X139414000Y-67464000D02*
X132874000Y-67464000D01*
X132874000Y-67464000D02*
X132874000Y-67794000D01*
%TO.C,R2*%
X127992000Y-74136000D02*
X127662000Y-74136000D01*
X127662000Y-74136000D02*
X127662000Y-67596000D01*
X127662000Y-67596000D02*
X127992000Y-67596000D01*
X130072000Y-74136000D02*
X130402000Y-74136000D01*
X130402000Y-74136000D02*
X130402000Y-67596000D01*
X130402000Y-67596000D02*
X130072000Y-67596000D01*
%TO.C,J3*%
X142180000Y-64710000D02*
X142180000Y-67370000D01*
X144780000Y-64710000D02*
X142180000Y-64710000D01*
X144780000Y-67370000D02*
X142180000Y-67370000D01*
X144780000Y-64710000D02*
X144780000Y-67370000D01*
X146050000Y-64710000D02*
X147380000Y-64710000D01*
X147380000Y-64710000D02*
X147380000Y-66040000D01*
%TO.C,J2*%
X148784000Y-77784000D02*
X151444000Y-77784000D01*
X148784000Y-75184000D02*
X148784000Y-77784000D01*
X151444000Y-75184000D02*
X151444000Y-77784000D01*
X148784000Y-75184000D02*
X151444000Y-75184000D01*
X148784000Y-73914000D02*
X148784000Y-72584000D01*
X148784000Y-72584000D02*
X150114000Y-72584000D01*
%TO.C,J1*%
X118050000Y-74990000D02*
X120710000Y-74990000D01*
X118050000Y-72390000D02*
X118050000Y-74990000D01*
X120710000Y-72390000D02*
X120710000Y-74990000D01*
X118050000Y-72390000D02*
X120710000Y-72390000D01*
X118050000Y-71120000D02*
X118050000Y-69790000D01*
X118050000Y-69790000D02*
X119380000Y-69790000D01*
%TO.C,C2*%
X139984000Y-81434000D02*
X144924000Y-81434000D01*
X139984000Y-84174000D02*
X144924000Y-84174000D01*
X139984000Y-81434000D02*
X139984000Y-81749000D01*
X139984000Y-83859000D02*
X139984000Y-84174000D01*
X144924000Y-81434000D02*
X144924000Y-81749000D01*
X144924000Y-83859000D02*
X144924000Y-84174000D01*
%TO.C,C1*%
X129510000Y-82142000D02*
X124570000Y-82142000D01*
X129510000Y-79402000D02*
X124570000Y-79402000D01*
X129510000Y-82142000D02*
X129510000Y-81827000D01*
X129510000Y-79717000D02*
X129510000Y-79402000D01*
X124570000Y-82142000D02*
X124570000Y-81827000D01*
X124570000Y-79717000D02*
X124570000Y-79402000D01*
%TO.C,R4*%
D11*
X143708380Y-73572666D02*
X143232190Y-73906000D01*
X143708380Y-74144095D02*
X142708380Y-74144095D01*
X142708380Y-73763142D01*
X142756000Y-73667904D01*
X142803619Y-73620285D01*
X142898857Y-73572666D01*
X143041714Y-73572666D01*
X143136952Y-73620285D01*
X143184571Y-73667904D01*
X143232190Y-73763142D01*
X143232190Y-74144095D01*
X143041714Y-72715523D02*
X143708380Y-72715523D01*
X142660761Y-72953619D02*
X143375047Y-73191714D01*
X143375047Y-72572666D01*
%TO.C,R1*%
X124293333Y-77922380D02*
X123960000Y-77446190D01*
X123721904Y-77922380D02*
X123721904Y-76922380D01*
X124102857Y-76922380D01*
X124198095Y-76970000D01*
X124245714Y-77017619D01*
X124293333Y-77112857D01*
X124293333Y-77255714D01*
X124245714Y-77350952D01*
X124198095Y-77398571D01*
X124102857Y-77446190D01*
X123721904Y-77446190D01*
X125245714Y-77922380D02*
X124674285Y-77922380D01*
X124960000Y-77922380D02*
X124960000Y-76922380D01*
X124864761Y-77065238D01*
X124769523Y-77160476D01*
X124674285Y-77208095D01*
%TO.C,U1*%
X135382095Y-75652380D02*
X135382095Y-76461904D01*
X135429714Y-76557142D01*
X135477333Y-76604761D01*
X135572571Y-76652380D01*
X135763047Y-76652380D01*
X135858285Y-76604761D01*
X135905904Y-76557142D01*
X135953523Y-76461904D01*
X135953523Y-75652380D01*
X136953523Y-76652380D02*
X136382095Y-76652380D01*
X136667809Y-76652380D02*
X136667809Y-75652380D01*
X136572571Y-75795238D01*
X136477333Y-75890476D01*
X136382095Y-75938095D01*
%TO.C,RV1*%
X121756380Y-70191238D02*
X121280190Y-70524571D01*
X121756380Y-70762666D02*
X120756380Y-70762666D01*
X120756380Y-70381714D01*
X120804000Y-70286476D01*
X120851619Y-70238857D01*
X120946857Y-70191238D01*
X121089714Y-70191238D01*
X121184952Y-70238857D01*
X121232571Y-70286476D01*
X121280190Y-70381714D01*
X121280190Y-70762666D01*
X120756380Y-69905523D02*
X121756380Y-69572190D01*
X120756380Y-69238857D01*
X121756380Y-68381714D02*
X121756380Y-68953142D01*
X121756380Y-68667428D02*
X120756380Y-68667428D01*
X120899238Y-68762666D01*
X120994476Y-68857904D01*
X121042095Y-68953142D01*
%TO.C,R5*%
X147153333Y-80476380D02*
X146820000Y-80000190D01*
X146581904Y-80476380D02*
X146581904Y-79476380D01*
X146962857Y-79476380D01*
X147058095Y-79524000D01*
X147105714Y-79571619D01*
X147153333Y-79666857D01*
X147153333Y-79809714D01*
X147105714Y-79904952D01*
X147058095Y-79952571D01*
X146962857Y-80000190D01*
X146581904Y-80000190D01*
X148058095Y-79476380D02*
X147581904Y-79476380D01*
X147534285Y-79952571D01*
X147581904Y-79904952D01*
X147677142Y-79857333D01*
X147915238Y-79857333D01*
X148010476Y-79904952D01*
X148058095Y-79952571D01*
X148105714Y-80047809D01*
X148105714Y-80285904D01*
X148058095Y-80381142D01*
X148010476Y-80428761D01*
X147915238Y-80476380D01*
X147677142Y-80476380D01*
X147581904Y-80428761D01*
X147534285Y-80381142D01*
%TO.C,R3*%
X135875333Y-69286380D02*
X135542000Y-68810190D01*
X135303904Y-69286380D02*
X135303904Y-68286380D01*
X135684857Y-68286380D01*
X135780095Y-68334000D01*
X135827714Y-68381619D01*
X135875333Y-68476857D01*
X135875333Y-68619714D01*
X135827714Y-68714952D01*
X135780095Y-68762571D01*
X135684857Y-68810190D01*
X135303904Y-68810190D01*
X136208666Y-68286380D02*
X136827714Y-68286380D01*
X136494380Y-68667333D01*
X136637238Y-68667333D01*
X136732476Y-68714952D01*
X136780095Y-68762571D01*
X136827714Y-68857809D01*
X136827714Y-69095904D01*
X136780095Y-69191142D01*
X136732476Y-69238761D01*
X136637238Y-69286380D01*
X136351523Y-69286380D01*
X136256285Y-69238761D01*
X136208666Y-69191142D01*
%TO.C,R2*%
X129484380Y-71032666D02*
X129008190Y-71366000D01*
X129484380Y-71604095D02*
X128484380Y-71604095D01*
X128484380Y-71223142D01*
X128532000Y-71127904D01*
X128579619Y-71080285D01*
X128674857Y-71032666D01*
X128817714Y-71032666D01*
X128912952Y-71080285D01*
X128960571Y-71127904D01*
X129008190Y-71223142D01*
X129008190Y-71604095D01*
X128579619Y-70651714D02*
X128532000Y-70604095D01*
X128484380Y-70508857D01*
X128484380Y-70270761D01*
X128532000Y-70175523D01*
X128579619Y-70127904D01*
X128674857Y-70080285D01*
X128770095Y-70080285D01*
X128912952Y-70127904D01*
X129484380Y-70699333D01*
X129484380Y-70080285D01*
%TO.C,J3*%
X147832380Y-66373333D02*
X148546666Y-66373333D01*
X148689523Y-66420952D01*
X148784761Y-66516190D01*
X148832380Y-66659047D01*
X148832380Y-66754285D01*
X147832380Y-65992380D02*
X147832380Y-65373333D01*
X148213333Y-65706666D01*
X148213333Y-65563809D01*
X148260952Y-65468571D01*
X148308571Y-65420952D01*
X148403809Y-65373333D01*
X148641904Y-65373333D01*
X148737142Y-65420952D01*
X148784761Y-65468571D01*
X148832380Y-65563809D01*
X148832380Y-65849523D01*
X148784761Y-65944761D01*
X148737142Y-65992380D01*
%TO.C,J2*%
X149780666Y-71036380D02*
X149780666Y-71750666D01*
X149733047Y-71893523D01*
X149637809Y-71988761D01*
X149494952Y-72036380D01*
X149399714Y-72036380D01*
X150209238Y-71131619D02*
X150256857Y-71084000D01*
X150352095Y-71036380D01*
X150590190Y-71036380D01*
X150685428Y-71084000D01*
X150733047Y-71131619D01*
X150780666Y-71226857D01*
X150780666Y-71322095D01*
X150733047Y-71464952D01*
X150161619Y-72036380D01*
X150780666Y-72036380D01*
%TO.C,J1*%
X119046666Y-68242380D02*
X119046666Y-68956666D01*
X118999047Y-69099523D01*
X118903809Y-69194761D01*
X118760952Y-69242380D01*
X118665714Y-69242380D01*
X120046666Y-69242380D02*
X119475238Y-69242380D01*
X119760952Y-69242380D02*
X119760952Y-68242380D01*
X119665714Y-68385238D01*
X119570476Y-68480476D01*
X119475238Y-68528095D01*
%TO.C,C2*%
X142287333Y-83161142D02*
X142239714Y-83208761D01*
X142096857Y-83256380D01*
X142001619Y-83256380D01*
X141858761Y-83208761D01*
X141763523Y-83113523D01*
X141715904Y-83018285D01*
X141668285Y-82827809D01*
X141668285Y-82684952D01*
X141715904Y-82494476D01*
X141763523Y-82399238D01*
X141858761Y-82304000D01*
X142001619Y-82256380D01*
X142096857Y-82256380D01*
X142239714Y-82304000D01*
X142287333Y-82351619D01*
X142668285Y-82351619D02*
X142715904Y-82304000D01*
X142811142Y-82256380D01*
X143049238Y-82256380D01*
X143144476Y-82304000D01*
X143192095Y-82351619D01*
X143239714Y-82446857D01*
X143239714Y-82542095D01*
X143192095Y-82684952D01*
X142620666Y-83256380D01*
X143239714Y-83256380D01*
%TO.C,C1*%
X126833333Y-81129142D02*
X126785714Y-81176761D01*
X126642857Y-81224380D01*
X126547619Y-81224380D01*
X126404761Y-81176761D01*
X126309523Y-81081523D01*
X126261904Y-80986285D01*
X126214285Y-80795809D01*
X126214285Y-80652952D01*
X126261904Y-80462476D01*
X126309523Y-80367238D01*
X126404761Y-80272000D01*
X126547619Y-80224380D01*
X126642857Y-80224380D01*
X126785714Y-80272000D01*
X126833333Y-80319619D01*
X127785714Y-81224380D02*
X127214285Y-81224380D01*
X127500000Y-81224380D02*
X127500000Y-80224380D01*
X127404761Y-80367238D01*
X127309523Y-80462476D01*
X127214285Y-80510095D01*
%TD*%
M02*
