M48
; DRILL file {KiCad (5.1.12)-1} date 02/01/22 21:13:37
; FORMAT={-:-/ absolute / metric / decimal}
; #@! TF.CreationDate,2022-02-01T21:13:37-05:00
; #@! TF.GenerationSoftware,Kicad,Pcbnew,(5.1.12)-1
; #@! TF.FileFunction,Plated,1,2,PTH
FMAT,2
METRIC
T1C0.800
T2C1.000
%
G90
G05
T1
X119.38Y-77.47
X124.54Y-80.772
X124.714Y-67.056
X124.714Y-69.596
X124.714Y-72.136
X129.032Y-67.056
X129.032Y-74.676
X129.54Y-77.47
X129.54Y-80.772
X132.334Y-68.834
X132.334Y-72.136
X132.334Y-74.676
X132.334Y-77.216
X132.334Y-79.756
X139.954Y-68.834
X139.954Y-72.136
X139.954Y-74.676
X139.954Y-77.216
X139.954Y-79.756
X139.954Y-82.804
X143.256Y-69.596
X143.256Y-77.216
X143.256Y-80.01
X144.954Y-82.804
X150.876Y-80.01
T2
X119.38Y-71.12
X119.38Y-73.66
X143.51Y-66.04
X146.05Y-66.04
X150.114Y-73.914
X150.114Y-76.454
T0
M30
