%TF.GenerationSoftware,KiCad,Pcbnew,(5.1.12)-1*%
%TF.CreationDate,2022-01-04T01:20:55-05:00*%
%TF.ProjectId,Lobotomizer,4c6f626f-746f-46d6-997a-65722e6b6963,rev?*%
%TF.SameCoordinates,Original*%
%TF.FileFunction,Soldermask,Top*%
%TF.FilePolarity,Negative*%
%FSLAX46Y46*%
G04 Gerber Fmt 4.6, Leading zero omitted, Abs format (unit mm)*
G04 Created by KiCad (PCBNEW (5.1.12)-1) date 2022-01-04 01:20:55*
%MOMM*%
%LPD*%
G01*
G04 APERTURE LIST*
%ADD10C,3.200000*%
%ADD11C,1.600000*%
%ADD12O,1.600000X1.600000*%
%ADD13R,1.600000X1.600000*%
%ADD14O,2.000000X1.905000*%
%ADD15R,2.000000X1.905000*%
%ADD16C,1.524000*%
%ADD17O,1.600000X2.400000*%
%ADD18R,1.600000X2.400000*%
%ADD19O,2.200000X3.500000*%
%ADD20O,1.500000X2.500000*%
%ADD21R,1.500000X2.500000*%
%ADD22O,3.500000X2.200000*%
%ADD23O,2.500000X1.500000*%
%ADD24R,2.500000X1.500000*%
%ADD25C,1.440000*%
%ADD26O,1.400000X1.400000*%
%ADD27C,1.400000*%
%ADD28R,1.050000X1.500000*%
%ADD29O,1.050000X1.500000*%
%ADD30R,1.500000X1.050000*%
%ADD31O,1.500000X1.050000*%
%ADD32R,3.500000X3.500000*%
%ADD33C,3.000000*%
%ADD34C,1.800000*%
%ADD35R,1.800000X1.800000*%
%ADD36O,2.200000X2.200000*%
%ADD37R,2.200000X2.200000*%
G04 APERTURE END LIST*
D10*
%TO.C,REF\u002A\u002A*%
X111760000Y-73660000D03*
%TD*%
%TO.C,REF\u002A\u002A*%
X205740000Y-147320000D03*
%TD*%
%TO.C,REF\u002A\u002A*%
X205740000Y-82550000D03*
%TD*%
%TO.C,REF\u002A\u002A*%
X109220000Y-144780000D03*
%TD*%
D11*
%TO.C,C106*%
X188675000Y-89535000D03*
X193675000Y-89535000D03*
%TD*%
D12*
%TO.C,U202*%
X106680000Y-65405000D03*
X114300000Y-57785000D03*
X106680000Y-62865000D03*
X114300000Y-60325000D03*
X106680000Y-60325000D03*
X114300000Y-62865000D03*
X106680000Y-57785000D03*
D13*
X114300000Y-65405000D03*
%TD*%
D12*
%TO.C,U201*%
X186690000Y-60960000D03*
X194310000Y-53340000D03*
X186690000Y-58420000D03*
X194310000Y-55880000D03*
X186690000Y-55880000D03*
X194310000Y-58420000D03*
X186690000Y-53340000D03*
D13*
X194310000Y-60960000D03*
%TD*%
D14*
%TO.C,U103*%
X151765000Y-88265000D03*
X151765000Y-85725000D03*
D15*
X151765000Y-83185000D03*
%TD*%
D16*
%TO.C,U102*%
X147955000Y-75565000D03*
X147955000Y-78105000D03*
X147955000Y-80645000D03*
X147955000Y-83185000D03*
X147955000Y-85725000D03*
X147955000Y-88265000D03*
%TD*%
D17*
%TO.C,U101*%
X188595000Y-119380000D03*
X173355000Y-111760000D03*
X186055000Y-119380000D03*
X175895000Y-111760000D03*
X183515000Y-119380000D03*
X178435000Y-111760000D03*
X180975000Y-119380000D03*
X180975000Y-111760000D03*
X178435000Y-119380000D03*
X183515000Y-111760000D03*
X175895000Y-119380000D03*
X186055000Y-111760000D03*
X173355000Y-119380000D03*
D18*
X188595000Y-111760000D03*
%TD*%
D12*
%TO.C,U1*%
X142240000Y-132715000D03*
X149860000Y-125095000D03*
X142240000Y-130175000D03*
X149860000Y-127635000D03*
X142240000Y-127635000D03*
X149860000Y-130175000D03*
X142240000Y-125095000D03*
D13*
X149860000Y-132715000D03*
%TD*%
D19*
%TO.C,SW202*%
X151570000Y-58420000D03*
X159770000Y-58420000D03*
D20*
X153670000Y-58420000D03*
X155670000Y-58420000D03*
D21*
X157670000Y-58420000D03*
%TD*%
D19*
%TO.C,SW201*%
X159770000Y-53340000D03*
X151570000Y-53340000D03*
D20*
X157670000Y-53340000D03*
X155670000Y-53340000D03*
D21*
X153670000Y-53340000D03*
%TD*%
D22*
%TO.C,SW102*%
X149352000Y-101096000D03*
X149352000Y-92896000D03*
D23*
X149352000Y-98996000D03*
X149352000Y-96996000D03*
D24*
X149352000Y-94996000D03*
%TD*%
D12*
%TO.C,SW101*%
X175895000Y-90170000D03*
X168275000Y-95250000D03*
X175895000Y-92710000D03*
X168275000Y-92710000D03*
X175895000Y-95250000D03*
D13*
X168275000Y-90170000D03*
%TD*%
D22*
%TO.C,SW3*%
X206375000Y-136085000D03*
X206375000Y-127885000D03*
D23*
X206375000Y-133985000D03*
X206375000Y-131985000D03*
D24*
X206375000Y-129985000D03*
%TD*%
D22*
%TO.C,SW2*%
X201295000Y-127885000D03*
X201295000Y-136085000D03*
D23*
X201295000Y-129985000D03*
X201295000Y-131985000D03*
D24*
X201295000Y-133985000D03*
%TD*%
D22*
%TO.C,SW1*%
X128905000Y-141355000D03*
X128905000Y-133155000D03*
D23*
X128905000Y-139255000D03*
X128905000Y-137255000D03*
D24*
X128905000Y-135255000D03*
%TD*%
D25*
%TO.C,RV205*%
X143510000Y-58420000D03*
X146050000Y-58420000D03*
X148590000Y-58420000D03*
%TD*%
%TO.C,RV204*%
X143510000Y-53340000D03*
X146050000Y-53340000D03*
X148590000Y-53340000D03*
%TD*%
%TO.C,RV203*%
X162560000Y-53340000D03*
X165100000Y-53340000D03*
X167640000Y-53340000D03*
%TD*%
%TO.C,RV202*%
X197485000Y-62865000D03*
X200025000Y-62865000D03*
X202565000Y-62865000D03*
%TD*%
%TO.C,RV201*%
X181610000Y-73025000D03*
X179070000Y-73025000D03*
X176530000Y-73025000D03*
%TD*%
%TO.C,RV103*%
X155575000Y-100330000D03*
X158115000Y-100330000D03*
X160655000Y-100330000D03*
%TD*%
%TO.C,RV102*%
X156210000Y-113665000D03*
X156210000Y-111125000D03*
X156210000Y-108585000D03*
%TD*%
%TO.C,RV101*%
X160655000Y-78740000D03*
X163195000Y-78740000D03*
X165735000Y-78740000D03*
%TD*%
%TO.C,RV5*%
X195580000Y-136525000D03*
X195580000Y-133985000D03*
X195580000Y-131445000D03*
%TD*%
%TO.C,RV4*%
X161290000Y-130175000D03*
X161290000Y-132715000D03*
X161290000Y-135255000D03*
%TD*%
%TO.C,RV3*%
X128270000Y-145415000D03*
X130810000Y-145415000D03*
X133350000Y-145415000D03*
%TD*%
%TO.C,RV2*%
X131445000Y-123825000D03*
X133985000Y-123825000D03*
X136525000Y-123825000D03*
%TD*%
%TO.C,RV1*%
X155575000Y-116840000D03*
X155575000Y-119380000D03*
X155575000Y-121920000D03*
%TD*%
D12*
%TO.C,R211*%
X115570000Y-53975000D03*
D11*
X105410000Y-53975000D03*
%TD*%
D12*
%TO.C,R210*%
X128270000Y-53975000D03*
D11*
X118110000Y-53975000D03*
%TD*%
D12*
%TO.C,R209*%
X140970000Y-57150000D03*
D11*
X130810000Y-57150000D03*
%TD*%
D12*
%TO.C,R208*%
X140970000Y-53975000D03*
D11*
X130810000Y-53975000D03*
%TD*%
D12*
%TO.C,R207*%
X186690000Y-67310000D03*
D11*
X194310000Y-67310000D03*
%TD*%
D12*
%TO.C,R206*%
X177800000Y-53975000D03*
D11*
X170180000Y-53975000D03*
%TD*%
D12*
%TO.C,R205*%
X186690000Y-64135000D03*
D11*
X194310000Y-64135000D03*
%TD*%
D12*
%TO.C,R204*%
X191135000Y-71120000D03*
D11*
X183515000Y-71120000D03*
%TD*%
D12*
%TO.C,R203*%
X177800000Y-77470000D03*
D11*
X185420000Y-77470000D03*
%TD*%
D12*
%TO.C,R202*%
X194310000Y-78105000D03*
D11*
X194310000Y-85725000D03*
%TD*%
D12*
%TO.C,R201*%
X204470000Y-67310000D03*
D11*
X196850000Y-67310000D03*
%TD*%
D12*
%TO.C,R122*%
X183515000Y-99060000D03*
D11*
X173355000Y-99060000D03*
%TD*%
D12*
%TO.C,R121*%
X168275000Y-114935000D03*
D11*
X160655000Y-114935000D03*
%TD*%
D12*
%TO.C,R120*%
X160655000Y-111760000D03*
D11*
X168275000Y-111760000D03*
%TD*%
D12*
%TO.C,R119*%
X186055000Y-92710000D03*
D11*
X178435000Y-92710000D03*
%TD*%
D12*
%TO.C,R118*%
X178435000Y-102235000D03*
D11*
X186055000Y-102235000D03*
%TD*%
D12*
%TO.C,R117*%
X186055000Y-95885000D03*
D11*
X178435000Y-95885000D03*
%TD*%
D12*
%TO.C,R116*%
X196215000Y-95885000D03*
D11*
X188595000Y-95885000D03*
%TD*%
D12*
%TO.C,R115*%
X151130000Y-73025000D03*
D11*
X151130000Y-65405000D03*
%TD*%
D12*
%TO.C,R114*%
X147955000Y-73025000D03*
D11*
X147955000Y-65405000D03*
%TD*%
D12*
%TO.C,R113*%
X158115000Y-89535000D03*
D11*
X165735000Y-89535000D03*
%TD*%
D12*
%TO.C,R112*%
X165735000Y-83185000D03*
D11*
X158115000Y-83185000D03*
%TD*%
D12*
%TO.C,R111*%
X178435000Y-86360000D03*
D11*
X188595000Y-86360000D03*
%TD*%
D12*
%TO.C,R110*%
X178435000Y-89535000D03*
D11*
X186055000Y-89535000D03*
%TD*%
D12*
%TO.C,R109*%
X188595000Y-83185000D03*
D11*
X178435000Y-83185000D03*
%TD*%
D12*
%TO.C,R108*%
X194310000Y-105410000D03*
D11*
X186690000Y-105410000D03*
%TD*%
D12*
%TO.C,R107*%
X163195000Y-99060000D03*
D11*
X170815000Y-99060000D03*
%TD*%
D12*
%TO.C,R106*%
X175895000Y-108585000D03*
D11*
X168275000Y-108585000D03*
%TD*%
D12*
%TO.C,R105*%
X186055000Y-108585000D03*
D11*
X193675000Y-108585000D03*
%TD*%
D12*
%TO.C,R104*%
X199390000Y-115570000D03*
D11*
X191770000Y-115570000D03*
%TD*%
D12*
%TO.C,R103*%
X178054000Y-123190000D03*
D11*
X185674000Y-123190000D03*
%TD*%
D12*
%TO.C,R102*%
X185420000Y-126365000D03*
D11*
X177800000Y-126365000D03*
%TD*%
D12*
%TO.C,R101*%
X203200000Y-124460000D03*
D11*
X193040000Y-124460000D03*
%TD*%
D12*
%TO.C,R31*%
X169545000Y-119380000D03*
D11*
X161925000Y-119380000D03*
%TD*%
D12*
%TO.C,R30*%
X175895000Y-123190000D03*
D11*
X168275000Y-123190000D03*
%TD*%
D26*
%TO.C,R29*%
X189865000Y-147320000D03*
D27*
X189865000Y-142240000D03*
%TD*%
D12*
%TO.C,R28*%
X179070000Y-143510000D03*
D11*
X186690000Y-143510000D03*
%TD*%
D12*
%TO.C,R27*%
X179070000Y-137160000D03*
D11*
X186690000Y-137160000D03*
%TD*%
D12*
%TO.C,R26*%
X186690000Y-140335000D03*
D11*
X179070000Y-140335000D03*
%TD*%
D12*
%TO.C,R25*%
X170180000Y-132715000D03*
D11*
X170180000Y-140335000D03*
%TD*%
D12*
%TO.C,R24*%
X167005000Y-140335000D03*
D11*
X167005000Y-132715000D03*
%TD*%
D12*
%TO.C,R23*%
X166370000Y-144145000D03*
D11*
X158750000Y-144145000D03*
%TD*%
D12*
%TO.C,R22*%
X166370000Y-147320000D03*
D11*
X158750000Y-147320000D03*
%TD*%
D12*
%TO.C,R21*%
X135890000Y-145415000D03*
D11*
X143510000Y-145415000D03*
%TD*%
D12*
%TO.C,R20*%
X133350000Y-132080000D03*
D11*
X133350000Y-139700000D03*
%TD*%
D12*
%TO.C,R19*%
X151130000Y-139065000D03*
D11*
X143510000Y-139065000D03*
%TD*%
D12*
%TO.C,R18*%
X151130000Y-142240000D03*
D11*
X143510000Y-142240000D03*
%TD*%
D12*
%TO.C,R17*%
X153670000Y-132080000D03*
D11*
X153670000Y-124460000D03*
%TD*%
D12*
%TO.C,R16*%
X156845000Y-124460000D03*
D11*
X156845000Y-132080000D03*
%TD*%
D12*
%TO.C,R15*%
X140970000Y-120650000D03*
D11*
X148590000Y-120650000D03*
%TD*%
D12*
%TO.C,R14*%
X144780000Y-110490000D03*
D11*
X144780000Y-118110000D03*
%TD*%
D12*
%TO.C,R13*%
X141605000Y-118110000D03*
D11*
X141605000Y-110490000D03*
%TD*%
D12*
%TO.C,R12*%
X140970000Y-104140000D03*
D11*
X130810000Y-104140000D03*
%TD*%
D12*
%TO.C,R11*%
X130810000Y-107315000D03*
D11*
X140970000Y-107315000D03*
%TD*%
D12*
%TO.C,R10*%
X131445000Y-114935000D03*
D11*
X139065000Y-114935000D03*
%TD*%
D12*
%TO.C,R9*%
X132715000Y-110490000D03*
D11*
X125095000Y-110490000D03*
%TD*%
D12*
%TO.C,R8*%
X122555000Y-111760000D03*
D11*
X122555000Y-119380000D03*
%TD*%
D12*
%TO.C,R7*%
X125095000Y-118745000D03*
D11*
X132715000Y-118745000D03*
%TD*%
D12*
%TO.C,R6*%
X129540000Y-130175000D03*
D11*
X121920000Y-130175000D03*
%TD*%
D12*
%TO.C,R5*%
X121920000Y-127000000D03*
D11*
X129540000Y-127000000D03*
%TD*%
D12*
%TO.C,R4*%
X119380000Y-123190000D03*
D11*
X111760000Y-123190000D03*
%TD*%
D12*
%TO.C,R3*%
X111760000Y-127000000D03*
D11*
X104140000Y-127000000D03*
%TD*%
D12*
%TO.C,R2*%
X83820000Y-127000000D03*
D11*
X91440000Y-127000000D03*
%TD*%
D12*
%TO.C,R1*%
X91440000Y-130810000D03*
D11*
X83820000Y-130810000D03*
%TD*%
D28*
%TO.C,Q202*%
X190500000Y-78105000D03*
D29*
X187960000Y-78105000D03*
X189230000Y-78105000D03*
%TD*%
D28*
%TO.C,Q201*%
X197485000Y-74930000D03*
D29*
X200025000Y-74930000D03*
X198755000Y-74930000D03*
%TD*%
D30*
%TO.C,Q6*%
X189865000Y-137160000D03*
D31*
X189865000Y-139700000D03*
X189865000Y-138430000D03*
%TD*%
D30*
%TO.C,Q5*%
X154940000Y-142875000D03*
D31*
X154940000Y-145415000D03*
X154940000Y-144145000D03*
%TD*%
D28*
%TO.C,Q4*%
X147955000Y-111760000D03*
D29*
X150495000Y-111760000D03*
X149225000Y-111760000D03*
%TD*%
D28*
%TO.C,Q3*%
X125730000Y-114935000D03*
D29*
X128270000Y-114935000D03*
X127000000Y-114935000D03*
%TD*%
D28*
%TO.C,Q2*%
X122555000Y-123190000D03*
D29*
X125095000Y-123190000D03*
X123825000Y-123190000D03*
%TD*%
D30*
%TO.C,Q1*%
X104140000Y-119380000D03*
D31*
X104140000Y-121920000D03*
X104140000Y-120650000D03*
%TD*%
%TO.C,J3*%
G36*
G01*
X85420000Y-104635000D02*
X85420000Y-102885000D01*
G75*
G02*
X86295000Y-102010000I875000J0D01*
G01*
X88045000Y-102010000D01*
G75*
G02*
X88920000Y-102885000I0J-875000D01*
G01*
X88920000Y-104635000D01*
G75*
G02*
X88045000Y-105510000I-875000J0D01*
G01*
X86295000Y-105510000D01*
G75*
G02*
X85420000Y-104635000I0J875000D01*
G01*
G37*
G36*
G01*
X82670000Y-100060000D02*
X82670000Y-98060000D01*
G75*
G02*
X83420000Y-97310000I750000J0D01*
G01*
X84920000Y-97310000D01*
G75*
G02*
X85670000Y-98060000I0J-750000D01*
G01*
X85670000Y-100060000D01*
G75*
G02*
X84920000Y-100810000I-750000J0D01*
G01*
X83420000Y-100810000D01*
G75*
G02*
X82670000Y-100060000I0J750000D01*
G01*
G37*
D32*
X90170000Y-99060000D03*
%TD*%
D33*
%TO.C,J2*%
X83820000Y-69570000D03*
X96520000Y-69570000D03*
X83820000Y-53340000D03*
X96520000Y-53340000D03*
%TD*%
%TO.C,J1*%
X83820000Y-150215000D03*
X96520000Y-150215000D03*
X83820000Y-133985000D03*
X96520000Y-133985000D03*
%TD*%
D34*
%TO.C,D206*%
X177165000Y-66675000D03*
D35*
X174625000Y-66675000D03*
%TD*%
D36*
%TO.C,D205*%
X101600000Y-109220000D03*
D37*
X93980000Y-109220000D03*
%TD*%
D12*
%TO.C,D204*%
X171450000Y-57150000D03*
D13*
X163830000Y-57150000D03*
%TD*%
D12*
%TO.C,D203*%
X163830000Y-59690000D03*
D13*
X171450000Y-59690000D03*
%TD*%
D12*
%TO.C,D202*%
X205105000Y-53975000D03*
D13*
X197485000Y-53975000D03*
%TD*%
D12*
%TO.C,D201*%
X207645000Y-61595000D03*
D13*
X207645000Y-53975000D03*
%TD*%
D36*
%TO.C,D101*%
X93980000Y-105410000D03*
D37*
X101600000Y-105410000D03*
%TD*%
D36*
%TO.C,D8*%
X93980000Y-101600000D03*
D37*
X101600000Y-101600000D03*
%TD*%
D12*
%TO.C,D7*%
X123190000Y-140970000D03*
D13*
X115570000Y-140970000D03*
%TD*%
D12*
%TO.C,D6*%
X123190000Y-138430000D03*
D13*
X115570000Y-138430000D03*
%TD*%
D12*
%TO.C,D5*%
X123190000Y-135890000D03*
D13*
X115570000Y-135890000D03*
%TD*%
D34*
%TO.C,D4*%
X109220000Y-135890000D03*
D35*
X109220000Y-133350000D03*
%TD*%
D12*
%TO.C,D3*%
X123190000Y-133350000D03*
D13*
X115570000Y-133350000D03*
%TD*%
D12*
%TO.C,D2*%
X143510000Y-104140000D03*
D13*
X151130000Y-104140000D03*
%TD*%
D12*
%TO.C,D1*%
X143510000Y-107315000D03*
D13*
X151130000Y-107315000D03*
%TD*%
D11*
%TO.C,C209*%
X106085000Y-86995000D03*
X108585000Y-86995000D03*
%TD*%
%TO.C,C208*%
X108045000Y-80645000D03*
D13*
X106045000Y-80645000D03*
%TD*%
D11*
%TO.C,C207*%
X182975000Y-53975000D03*
D13*
X180975000Y-53975000D03*
%TD*%
D11*
%TO.C,C206*%
X194310000Y-75485000D03*
X194310000Y-70485000D03*
%TD*%
%TO.C,C205*%
X182975000Y-61595000D03*
D13*
X180975000Y-61595000D03*
%TD*%
D11*
%TO.C,C204*%
X202485000Y-57150000D03*
X197485000Y-57150000D03*
%TD*%
%TO.C,C203*%
X188635000Y-74295000D03*
X191135000Y-74295000D03*
%TD*%
%TO.C,C202*%
X197485000Y-78145000D03*
X197485000Y-80645000D03*
%TD*%
%TO.C,C201*%
X155615000Y-93345000D03*
X158115000Y-93345000D03*
%TD*%
%TO.C,C117*%
X153130000Y-77470000D03*
D13*
X151130000Y-77470000D03*
%TD*%
D11*
%TO.C,C116*%
X105950000Y-93980000D03*
D13*
X107950000Y-93980000D03*
%TD*%
D11*
%TO.C,C115*%
X169640000Y-104140000D03*
X167640000Y-104140000D03*
%TD*%
%TO.C,C114*%
X175355000Y-104140000D03*
X173355000Y-104140000D03*
%TD*%
%TO.C,C113*%
X162655000Y-107315000D03*
D13*
X160655000Y-107315000D03*
%TD*%
D11*
%TO.C,C112*%
X178515000Y-105410000D03*
X183515000Y-105410000D03*
%TD*%
%TO.C,C111*%
X191230000Y-100838000D03*
X189230000Y-100838000D03*
%TD*%
%TO.C,C110*%
X163830000Y-93250000D03*
X163830000Y-95250000D03*
%TD*%
%TO.C,C109*%
X158155000Y-86360000D03*
X160655000Y-86360000D03*
%TD*%
%TO.C,C108*%
X170910000Y-83185000D03*
X168910000Y-83185000D03*
%TD*%
%TO.C,C107*%
X175855000Y-86360000D03*
X173355000Y-86360000D03*
%TD*%
%TO.C,C105*%
X199485000Y-105410000D03*
D13*
X197485000Y-105410000D03*
%TD*%
D11*
%TO.C,C104*%
X183435000Y-108585000D03*
X178435000Y-108585000D03*
%TD*%
%TO.C,C103*%
X194270000Y-119380000D03*
X191770000Y-119380000D03*
%TD*%
%TO.C,C102*%
X204565000Y-115570000D03*
D13*
X202565000Y-115570000D03*
%TD*%
D11*
%TO.C,C101*%
X190460000Y-124460000D03*
X187960000Y-124460000D03*
%TD*%
%TO.C,C23*%
X165195000Y-125730000D03*
D13*
X163195000Y-125730000D03*
%TD*%
D11*
%TO.C,C22*%
X108545000Y-107950000D03*
X106045000Y-107950000D03*
%TD*%
%TO.C,C21*%
X108045000Y-101600000D03*
D13*
X106045000Y-101600000D03*
%TD*%
D11*
%TO.C,C20*%
X189865000Y-133445000D03*
D13*
X189865000Y-131445000D03*
%TD*%
D11*
%TO.C,C19*%
X173895000Y-140335000D03*
D13*
X175895000Y-140335000D03*
%TD*%
D11*
%TO.C,C18*%
X172005000Y-130175000D03*
X167005000Y-130175000D03*
%TD*%
%TO.C,C17*%
X160655000Y-140430000D03*
D13*
X160655000Y-138430000D03*
%TD*%
D11*
%TO.C,C16*%
X151050000Y-145415000D03*
X146050000Y-145415000D03*
%TD*%
%TO.C,C15*%
X141010000Y-148590000D03*
X143510000Y-148590000D03*
%TD*%
%TO.C,C14*%
X138525000Y-132080000D03*
D13*
X136525000Y-132080000D03*
%TD*%
D11*
%TO.C,C13*%
X138335000Y-137795000D03*
D13*
X140335000Y-137795000D03*
%TD*%
D11*
%TO.C,C12*%
X138470000Y-142240000D03*
X140970000Y-142240000D03*
%TD*%
%TO.C,C11*%
X151050000Y-135890000D03*
X146050000Y-135890000D03*
%TD*%
%TO.C,C10*%
X139700000Y-127595000D03*
X139700000Y-125095000D03*
%TD*%
%TO.C,C9*%
X156170000Y-134620000D03*
X153670000Y-134620000D03*
%TD*%
%TO.C,C8*%
X159385000Y-119460000D03*
X159385000Y-124460000D03*
%TD*%
%TO.C,C7*%
X148495000Y-116840000D03*
D13*
X150495000Y-116840000D03*
%TD*%
D11*
%TO.C,C6*%
X125135000Y-107315000D03*
X127635000Y-107315000D03*
%TD*%
%TO.C,C5*%
X135295000Y-111125000D03*
X137795000Y-111125000D03*
%TD*%
%TO.C,C4*%
X116880000Y-127000000D03*
X119380000Y-127000000D03*
%TD*%
%TO.C,C3*%
X112300000Y-118110000D03*
D13*
X114300000Y-118110000D03*
%TD*%
D11*
%TO.C,C2*%
X97830000Y-127000000D03*
X100330000Y-127000000D03*
%TD*%
%TO.C,C1*%
X88820000Y-123190000D03*
X83820000Y-123190000D03*
%TD*%
M02*
