M48
; DRILL file {KiCad (5.1.12)-1} date 02/07/22 16:41:06
; FORMAT={-:-/ absolute / metric / decimal}
; #@! TF.CreationDate,2022-02-07T16:41:06-05:00
; #@! TF.GenerationSoftware,Kicad,Pcbnew,(5.1.12)-1
; #@! TF.FileFunction,Plated,1,2,PTH
FMAT,2
METRIC
T1C0.400
T2C0.700
T3C0.750
T4C0.800
T5C0.900
T6C1.000
T7C1.100
T8C1.300
T9C1.400
T10C1.600
%
G90
G05
T1
X166.878Y-65.786
X167.64Y-87.63
X191.262Y-99.314
X198.12Y-109.982
X202.184Y-106.426
X203.454Y-109.22
X205.232Y-126.492
X208.28Y-100.33
X208.28Y-108.458
X208.788Y-106.934
X209.804Y-144.018
X212.598Y-116.586
X216.662Y-96.774
X217.932Y-107.95
T2
X106.426Y-74.422
X106.426Y-79.502
X117.602Y-74.422
X117.602Y-79.502
X119.126Y-84.074
X124.206Y-84.074
X128.778Y-74.422
X128.778Y-79.502
X139.954Y-74.422
X139.954Y-79.502
X142.494Y-74.422
X142.494Y-79.502
X154.178Y-55.118
X154.178Y-60.198
X154.178Y-62.484
X154.178Y-64.77
X154.686Y-98.552
X154.686Y-103.632
X154.686Y-112.014
X159.258Y-62.484
X159.258Y-64.77
X159.766Y-98.552
X159.766Y-103.632
X159.766Y-112.014
X161.29Y-121.158
X161.544Y-55.118
X161.544Y-60.198
X166.37Y-121.158
X166.878Y-109.982
X171.958Y-109.982
X174.244Y-98.552
X174.244Y-103.632
X175.26Y-120.65
X179.578Y-105.41
X179.578Y-110.49
X179.832Y-91.186
X180.34Y-120.65
X182.626Y-106.172
X182.626Y-111.252
X183.896Y-126.238
X184.912Y-91.186
X188.976Y-126.238
X192.786Y-56.134
X193.294Y-117.348
X193.294Y-122.428
X193.802Y-58.42
X193.802Y-63.5
X196.088Y-63.5
X197.866Y-56.134
X199.898Y-56.134
X199.898Y-58.42
X200.152Y-69.596
X201.168Y-63.5
X201.422Y-119.38
X201.422Y-121.666
X202.692Y-123.952
X204.978Y-56.134
X204.978Y-58.42
X205.232Y-69.596
X206.502Y-119.38
X206.502Y-121.666
X207.772Y-123.952
X222.504Y-87.122
X227.584Y-87.122
X229.87Y-101.854
X234.95Y-101.854
X246.888Y-88.9
X246.888Y-93.98
T3
X109.982Y-95.25
X109.982Y-102.87
X111.252Y-95.25
X111.252Y-102.87
X112.522Y-95.25
X112.522Y-102.87
X135.382Y-101.6
X135.382Y-102.87
X135.382Y-104.14
X151.384Y-109.474
X151.384Y-110.744
X151.384Y-112.014
X162.814Y-73.914
X162.814Y-75.184
X162.814Y-76.454
X169.672Y-73.914
X169.672Y-75.184
X169.672Y-76.454
X169.926Y-121.158
X169.926Y-122.428
X169.926Y-123.698
X196.342Y-119.888
X196.342Y-121.158
X196.342Y-122.428
T4
X99.568Y-100.076
X102.616Y-71.882
X102.616Y-74.422
X102.616Y-76.962
X106.204Y-108.204
X107.188Y-100.076
X108.204Y-108.204
X109.474Y-90.424
X109.514Y-83.566
X109.554Y-86.614
X112.014Y-83.566
X112.014Y-90.424
X112.522Y-108.204
X113.792Y-71.882
X113.792Y-74.422
X113.792Y-76.962
X114.554Y-86.614
X114.554Y-90.424
X115.316Y-94.742
X115.316Y-97.536
X115.316Y-100.33
X119.126Y-86.36
X119.126Y-88.9
X119.126Y-91.44
X120.142Y-108.204
X120.316Y-97.536
X122.936Y-91.44
X122.936Y-94.742
X122.936Y-100.33
X122.936Y-103.632
X122.936Y-106.68
X124.968Y-71.882
X124.968Y-74.422
X124.968Y-76.962
X125.476Y-88.138
X125.984Y-97.536
X127.984Y-97.536
X130.556Y-103.632
X130.556Y-106.68
X133.096Y-88.138
X133.096Y-91.44
X134.62Y-97.282
X134.66Y-107.442
X136.144Y-71.882
X136.144Y-74.422
X136.144Y-76.962
X137.16Y-97.282
X137.16Y-107.442
X139.446Y-107.696
X139.7Y-97.282
X141.986Y-107.696
X143.51Y-55.626
X143.51Y-58.166
X143.51Y-60.706
X143.51Y-63.246
X143.51Y-92.202
X143.51Y-94.742
X143.51Y-97.282
X144.526Y-107.696
X145.288Y-101.124
X145.288Y-103.124
X151.13Y-55.626
X151.13Y-58.166
X151.13Y-60.706
X151.13Y-63.246
X151.384Y-115.316
X151.464Y-118.11
X152.146Y-106.426
X154.686Y-101.092
X154.686Y-109.474
X155.702Y-139.446
X155.702Y-144.446
X156.464Y-118.11
X156.972Y-79.756
X157.012Y-74.168
X157.734Y-127.508
X157.734Y-135.128
X158.242Y-144.526
X158.242Y-147.828
X158.75Y-118.364
X159.004Y-115.316
X159.512Y-70.866
X159.512Y-74.168
X159.686Y-101.092
X159.686Y-109.474
X159.766Y-106.426
X160.782Y-135.716
X160.782Y-140.716
X161.29Y-123.952
X161.544Y-62.484
X162.052Y-82.804
X162.052Y-99.06
X162.052Y-101.6
X162.052Y-104.14
X162.052Y-106.68
X162.092Y-109.982
X163.322Y-140.462
X163.576Y-136.144
X164.084Y-95.758
X164.084Y-128.016
X164.084Y-130.556
X164.084Y-133.096
X164.338Y-55.118
X164.338Y-57.618
X164.552Y-82.804
X164.592Y-79.756
X164.592Y-109.982
X165.862Y-140.462
X165.862Y-144.526
X165.862Y-147.828
X166.29Y-123.952
X166.37Y-118.364
X166.544Y-62.484
X166.584Y-95.758
X167.132Y-70.866
X168.148Y-147.828
X168.402Y-140.462
X169.164Y-94.742
X169.672Y-79.756
X169.672Y-99.06
X169.672Y-101.6
X169.672Y-104.14
X169.672Y-106.68
X169.926Y-87.63
X169.926Y-90.424
X169.926Y-117.856
X171.196Y-136.144
X171.704Y-94.742
X171.704Y-130.588
X171.704Y-132.588
X173.148Y-147.828
X173.736Y-137.668
X173.99Y-126.238
X174.244Y-94.742
X174.752Y-113.03
X175.34Y-123.19
X176.752Y-113.03
X176.784Y-94.996
X176.784Y-99.314
X176.784Y-106.934
X177.038Y-71.882
X177.038Y-74.422
X177.038Y-76.962
X177.292Y-79.756
X177.546Y-87.63
X177.546Y-90.424
X177.546Y-117.856
X179.284Y-94.996
X179.578Y-79.756
X179.578Y-115.57
X180.34Y-123.19
X180.594Y-101.6
X181.356Y-137.668
X181.61Y-126.238
X182.078Y-115.57
X182.372Y-72.39
X182.594Y-101.6
X182.626Y-55.626
X182.626Y-58.166
X182.626Y-60.706
X182.626Y-63.246
X182.626Y-123.19
X182.626Y-129.286
X182.626Y-133.604
X184.658Y-112.268
X184.658Y-118.618
X184.872Y-72.39
X185.166Y-66.802
X186.182Y-99.06
X186.182Y-101.6
X186.182Y-104.14
X186.182Y-106.68
X186.658Y-118.618
X187.198Y-72.39
X187.198Y-75.184
X187.198Y-79.756
X187.96Y-91.186
X189.738Y-80.772
X189.96Y-91.186
X190.246Y-55.626
X190.246Y-58.166
X190.246Y-60.706
X190.246Y-63.246
X190.246Y-115.316
X190.246Y-120.316
X190.246Y-123.19
X190.246Y-129.286
X190.246Y-133.604
X190.286Y-136.398
X192.278Y-80.772
X192.278Y-112.268
X192.786Y-66.802
X192.786Y-125.73
X192.786Y-129.032
X192.786Y-136.398
X193.548Y-140.716
X193.548Y-148.336
X193.802Y-99.06
X193.802Y-101.6
X193.802Y-104.14
X193.802Y-106.68
X194.818Y-72.39
X194.818Y-75.184
X194.818Y-80.772
X194.898Y-84.836
X196.342Y-99.06
X196.342Y-101.6
X196.342Y-104.14
X196.342Y-106.68
X197.104Y-88.138
X197.104Y-140.97
X197.104Y-145.97
X197.358Y-135.128
X197.612Y-95.504
X198.828Y-72.558
X198.828Y-75.098
X198.828Y-77.638
X198.828Y-80.178
X199.358Y-135.128
X199.644Y-140.97
X199.644Y-143.764
X199.898Y-84.836
X200.406Y-125.73
X200.406Y-129.032
X201.422Y-112.268
X201.422Y-116.586
X202.104Y-88.138
X202.184Y-83.82
X202.692Y-126.746
X202.692Y-130.048
X202.692Y-133.35
X202.692Y-136.652
X203.962Y-99.06
X203.962Y-101.6
X203.962Y-104.14
X203.962Y-106.68
X203.962Y-112.268
X204.978Y-63.246
X205.232Y-95.504
X205.486Y-89.916
X206.448Y-72.558
X206.448Y-75.098
X206.448Y-77.638
X206.448Y-80.178
X206.502Y-99.06
X206.502Y-101.6
X206.502Y-104.14
X206.502Y-106.68
X206.502Y-112.268
X207.264Y-140.97
X207.264Y-143.764
X207.486Y-89.916
X207.518Y-63.246
X208.788Y-54.61
X208.788Y-57.15
X208.788Y-59.69
X209.042Y-116.586
X209.804Y-83.82
X209.804Y-140.97
X209.804Y-148.59
X210.058Y-63.246
X210.312Y-126.746
X210.312Y-130.048
X210.312Y-133.35
X210.312Y-136.652
X210.344Y-71.12
X211.408Y-109.982
X212.344Y-71.12
X212.344Y-148.59
X213.186Y-118.872
X213.392Y-140.97
X213.614Y-122.206
X213.614Y-124.206
X214.122Y-99.06
X214.122Y-101.6
X214.122Y-104.14
X214.122Y-106.68
X215.392Y-140.97
X215.9Y-70.866
X215.9Y-78.486
X216.408Y-103.632
X216.408Y-109.982
X216.916Y-113.284
X217.344Y-148.59
X217.424Y-145.796
X218.186Y-118.872
X218.694Y-139.7
X218.948Y-70.866
X218.948Y-78.486
X218.948Y-81.566
X218.948Y-83.566
X220.218Y-90.678
X220.218Y-98.298
X221.234Y-117.602
X221.234Y-125.222
X221.742Y-73.152
X221.996Y-108.204
X222.536Y-78.486
X223.52Y-90.678
X223.52Y-98.298
X224.028Y-103.632
X224.536Y-78.486
X224.536Y-108.204
X224.536Y-113.284
X224.79Y-122.936
X225.044Y-145.796
X226.314Y-139.7
X226.742Y-73.152
X226.984Y-112.168
X226.984Y-117.168
X227.076Y-108.204
X227.29Y-122.936
X227.584Y-76.708
X227.584Y-79.248
X227.584Y-81.788
X227.584Y-84.328
X229.616Y-104.394
X229.616Y-112.014
X229.87Y-88.646
X229.87Y-96.52
X231.648Y-118.364
X231.648Y-120.364
X232.41Y-88.646
X232.41Y-96.52
X234.95Y-88.646
X234.95Y-96.52
X235.204Y-76.708
X235.204Y-79.248
X235.204Y-81.788
X235.204Y-84.328
X237.744Y-100.33
X237.998Y-88.392
X237.998Y-96.012
X240.244Y-100.33
X242.57Y-88.98
X242.57Y-93.98
X246.634Y-99.568
X248.634Y-99.568
X251.276Y-92.062
X252.476Y-99.568
X253.276Y-92.062
X254.476Y-99.568
T5
X176.784Y-131.318
X179.324Y-131.318
X195.58Y-113.03
X198.12Y-113.03
X209.804Y-78.74
X212.344Y-78.74
X214.122Y-91.694
X216.662Y-91.694
T7
X177.292Y-83.058
X184.912Y-83.058
T8
X102.616Y-57.15
X102.616Y-62.23
X102.616Y-67.31
X102.616Y-85.09
X102.616Y-90.17
X102.616Y-95.25
X113.792Y-57.15
X113.792Y-62.23
X113.792Y-67.31
X124.968Y-57.15
X124.968Y-62.23
X124.968Y-67.31
X136.144Y-57.15
X136.144Y-62.23
X136.144Y-67.31
X149.606Y-92.202
X150.114Y-69.088
X150.114Y-74.168
X150.114Y-79.248
X154.686Y-92.202
X159.766Y-92.202
X217.932Y-56.388
X217.932Y-61.468
X217.932Y-66.548
X229.108Y-56.388
X229.108Y-61.468
X229.108Y-66.548
T9
X78.74Y-67.818
X78.74Y-80.518
X94.97Y-67.818
X94.97Y-80.518
X240.792Y-67.056
X240.792Y-79.756
X257.022Y-67.056
X257.022Y-79.756
T10
X213.614Y-129.286
X213.614Y-135.238
X226.314Y-129.286
X226.314Y-135.238
T6
G00X170.252Y-59.79
M15
G01X170.252Y-58.29
M16
G05
G00X175.402Y-60.04
M15
G01X174.102Y-60.04
M16
G05
G00X175.752Y-66.04
M15
G01X173.752Y-66.04
M16
G05
G00X179.252Y-59.79
M15
G01X179.252Y-58.29
M16
G05
T0
M30
