%TF.GenerationSoftware,KiCad,Pcbnew,(5.1.12)-1*%
%TF.CreationDate,2022-02-07T16:41:04-05:00*%
%TF.ProjectId,Lobotomizer,4c6f626f-746f-46d6-997a-65722e6b6963,rev?*%
%TF.SameCoordinates,Original*%
%TF.FileFunction,Soldermask,Top*%
%TF.FilePolarity,Negative*%
%FSLAX46Y46*%
G04 Gerber Fmt 4.6, Leading zero omitted, Abs format (unit mm)*
G04 Created by KiCad (PCBNEW (5.1.12)-1) date 2022-02-07 16:41:04*
%MOMM*%
%LPD*%
G01*
G04 APERTURE LIST*
%ADD10C,1.600000*%
%ADD11O,2.000000X3.500000*%
%ADD12O,3.300000X2.000000*%
%ADD13R,4.000000X2.000000*%
%ADD14O,1.600000X1.600000*%
%ADD15R,1.600000X1.600000*%
%ADD16C,2.600000*%
%ADD17R,2.600000X2.600000*%
%ADD18C,1.440000*%
%ADD19O,1.400000X1.400000*%
%ADD20C,1.400000*%
%ADD21R,1.500000X1.050000*%
%ADD22O,1.500000X1.050000*%
%ADD23R,1.050000X1.500000*%
%ADD24O,1.050000X1.500000*%
%ADD25C,3.000000*%
%ADD26C,1.800000*%
%ADD27R,1.800000X1.800000*%
%ADD28O,2.200000X2.200000*%
%ADD29R,2.200000X2.200000*%
%ADD30O,3.200000X3.200000*%
%ADD31R,3.200000X3.200000*%
G04 APERTURE END LIST*
D10*
%TO.C,J3*%
X174752000Y-57040000D03*
D11*
X170252000Y-59040000D03*
X179252000Y-59040000D03*
D12*
X174752000Y-60040000D03*
D13*
X174752000Y-66040000D03*
%TD*%
D14*
%TO.C,U301*%
X206448000Y-72558000D03*
X198828000Y-80178000D03*
X206448000Y-75098000D03*
X198828000Y-77638000D03*
X206448000Y-77638000D03*
X198828000Y-75098000D03*
X206448000Y-80178000D03*
D15*
X198828000Y-72558000D03*
%TD*%
D14*
%TO.C,U206*%
X235204000Y-76708000D03*
X227584000Y-84328000D03*
X235204000Y-79248000D03*
X227584000Y-81788000D03*
X235204000Y-81788000D03*
X227584000Y-79248000D03*
X235204000Y-84328000D03*
D15*
X227584000Y-76708000D03*
%TD*%
D14*
%TO.C,U205*%
X203962000Y-99060000D03*
X196342000Y-106680000D03*
X203962000Y-101600000D03*
X196342000Y-104140000D03*
X203962000Y-104140000D03*
X196342000Y-101600000D03*
X203962000Y-106680000D03*
D15*
X196342000Y-99060000D03*
%TD*%
D14*
%TO.C,U204*%
X193802000Y-99060000D03*
X186182000Y-106680000D03*
X193802000Y-101600000D03*
X186182000Y-104140000D03*
X193802000Y-104140000D03*
X186182000Y-101600000D03*
X193802000Y-106680000D03*
D15*
X186182000Y-99060000D03*
%TD*%
D14*
%TO.C,U203*%
X190246000Y-55626000D03*
X182626000Y-63246000D03*
X190246000Y-58166000D03*
X182626000Y-60706000D03*
X190246000Y-60706000D03*
X182626000Y-58166000D03*
X190246000Y-63246000D03*
D15*
X182626000Y-55626000D03*
%TD*%
D14*
%TO.C,U202*%
X214122000Y-99060000D03*
X206502000Y-106680000D03*
X214122000Y-101600000D03*
X206502000Y-104140000D03*
X214122000Y-104140000D03*
X206502000Y-101600000D03*
X214122000Y-106680000D03*
D15*
X206502000Y-99060000D03*
%TD*%
D14*
%TO.C,U201*%
X169672000Y-99060000D03*
X162052000Y-106680000D03*
X169672000Y-101600000D03*
X162052000Y-104140000D03*
X169672000Y-104140000D03*
X162052000Y-101600000D03*
X169672000Y-106680000D03*
D15*
X162052000Y-99060000D03*
%TD*%
D14*
%TO.C,U1*%
X151130000Y-55626000D03*
X143510000Y-63246000D03*
X151130000Y-58166000D03*
X143510000Y-60706000D03*
X151130000Y-60706000D03*
X143510000Y-58166000D03*
X151130000Y-63246000D03*
D15*
X143510000Y-55626000D03*
%TD*%
D16*
%TO.C,SW301*%
X150114000Y-79248000D03*
X150114000Y-74168000D03*
D17*
X150114000Y-69088000D03*
%TD*%
D16*
%TO.C,SW203*%
X159766000Y-92202000D03*
X154686000Y-92202000D03*
D17*
X149606000Y-92202000D03*
%TD*%
D16*
%TO.C,SW202*%
X217932000Y-66548000D03*
X217932000Y-61468000D03*
D17*
X217932000Y-56388000D03*
%TD*%
D16*
%TO.C,SW201*%
X229108000Y-66548000D03*
X229108000Y-61468000D03*
D17*
X229108000Y-56388000D03*
%TD*%
D16*
%TO.C,SW101*%
X102616000Y-95250000D03*
X102616000Y-90170000D03*
D17*
X102616000Y-85090000D03*
%TD*%
D16*
%TO.C,SW4*%
X136144000Y-67310000D03*
X136144000Y-62230000D03*
D17*
X136144000Y-57150000D03*
%TD*%
D16*
%TO.C,SW3*%
X124968000Y-67310000D03*
X124968000Y-62230000D03*
D17*
X124968000Y-57150000D03*
%TD*%
D16*
%TO.C,SW2*%
X113792000Y-67310000D03*
X113792000Y-62230000D03*
D17*
X113792000Y-57150000D03*
%TD*%
D16*
%TO.C,SW1*%
X102616000Y-67310000D03*
X102616000Y-62230000D03*
D17*
X102616000Y-57150000D03*
%TD*%
D18*
%TO.C,RV302*%
X194818000Y-80772000D03*
X192278000Y-80772000D03*
X189738000Y-80772000D03*
%TD*%
%TO.C,RV301*%
X177038000Y-71882000D03*
X177038000Y-74422000D03*
X177038000Y-76962000D03*
%TD*%
%TO.C,RV209*%
X201422000Y-112268000D03*
X203962000Y-112268000D03*
X206502000Y-112268000D03*
%TD*%
%TO.C,RV208*%
X204978000Y-63246000D03*
X207518000Y-63246000D03*
X210058000Y-63246000D03*
%TD*%
%TO.C,RV207*%
X234950000Y-96520000D03*
X232410000Y-96520000D03*
X229870000Y-96520000D03*
%TD*%
%TO.C,RV206*%
X234950000Y-88646000D03*
X232410000Y-88646000D03*
X229870000Y-88646000D03*
%TD*%
%TO.C,RV205*%
X208788000Y-54610000D03*
X208788000Y-57150000D03*
X208788000Y-59690000D03*
%TD*%
%TO.C,RV204*%
X164084000Y-133096000D03*
X164084000Y-130556000D03*
X164084000Y-128016000D03*
%TD*%
%TO.C,RV203*%
X168402000Y-140462000D03*
X165862000Y-140462000D03*
X163322000Y-140462000D03*
%TD*%
%TO.C,RV202*%
X221996000Y-108204000D03*
X224536000Y-108204000D03*
X227076000Y-108204000D03*
%TD*%
%TO.C,RV201*%
X169164000Y-94742000D03*
X171704000Y-94742000D03*
X174244000Y-94742000D03*
%TD*%
%TO.C,RV105*%
X143510000Y-92202000D03*
X143510000Y-94742000D03*
X143510000Y-97282000D03*
%TD*%
%TO.C,RV104*%
X139446000Y-107696000D03*
X141986000Y-107696000D03*
X144526000Y-107696000D03*
%TD*%
%TO.C,RV103*%
X134620000Y-97282000D03*
X137160000Y-97282000D03*
X139700000Y-97282000D03*
%TD*%
%TO.C,RV102*%
X119126000Y-91440000D03*
X119126000Y-88900000D03*
X119126000Y-86360000D03*
%TD*%
%TO.C,RV101*%
X109474000Y-90424000D03*
X112014000Y-90424000D03*
X114554000Y-90424000D03*
%TD*%
%TO.C,RV4*%
X136144000Y-76962000D03*
X136144000Y-74422000D03*
X136144000Y-71882000D03*
%TD*%
%TO.C,RV3*%
X124968000Y-76962000D03*
X124968000Y-74422000D03*
X124968000Y-71882000D03*
%TD*%
%TO.C,RV2*%
X113792000Y-76962000D03*
X113792000Y-74422000D03*
X113792000Y-71882000D03*
%TD*%
%TO.C,RV1*%
X102616000Y-76962000D03*
X102616000Y-74422000D03*
X102616000Y-71882000D03*
%TD*%
D14*
%TO.C,R307*%
X202184000Y-83820000D03*
D10*
X209804000Y-83820000D03*
%TD*%
D19*
%TO.C,R306*%
X184912000Y-91186000D03*
D20*
X179832000Y-91186000D03*
%TD*%
D19*
%TO.C,R305*%
X205232000Y-69596000D03*
D20*
X200152000Y-69596000D03*
%TD*%
D14*
%TO.C,R304*%
X169672000Y-79756000D03*
D10*
X177292000Y-79756000D03*
%TD*%
D14*
%TO.C,R303*%
X179578000Y-79756000D03*
D10*
X187198000Y-79756000D03*
%TD*%
D14*
%TO.C,R302*%
X164592000Y-79756000D03*
D10*
X156972000Y-79756000D03*
%TD*%
D14*
%TO.C,R301*%
X159512000Y-70866000D03*
D10*
X167132000Y-70866000D03*
%TD*%
D19*
%TO.C,R255*%
X201422000Y-121666000D03*
D20*
X206502000Y-121666000D03*
%TD*%
D14*
%TO.C,R254*%
X237998000Y-88392000D03*
D10*
X237998000Y-96012000D03*
%TD*%
D19*
%TO.C,R253*%
X201422000Y-119380000D03*
D20*
X206502000Y-119380000D03*
%TD*%
D14*
%TO.C,R252*%
X202692000Y-126746000D03*
D10*
X210312000Y-126746000D03*
%TD*%
D19*
%TO.C,R251*%
X197866000Y-56134000D03*
D20*
X192786000Y-56134000D03*
%TD*%
D19*
%TO.C,R250*%
X204978000Y-58420000D03*
D20*
X199898000Y-58420000D03*
%TD*%
D19*
%TO.C,R249*%
X204978000Y-56134000D03*
D20*
X199898000Y-56134000D03*
%TD*%
D19*
%TO.C,R248*%
X193802000Y-63500000D03*
D20*
X193802000Y-58420000D03*
%TD*%
D19*
%TO.C,R247*%
X201168000Y-63500000D03*
D20*
X196088000Y-63500000D03*
%TD*%
D14*
%TO.C,R246*%
X224536000Y-113284000D03*
D10*
X216916000Y-113284000D03*
%TD*%
D14*
%TO.C,R245*%
X221234000Y-125222000D03*
D10*
X221234000Y-117602000D03*
%TD*%
D19*
%TO.C,R244*%
X202692000Y-123952000D03*
D20*
X207772000Y-123952000D03*
%TD*%
D14*
%TO.C,R243*%
X215900000Y-78486000D03*
D10*
X215900000Y-70866000D03*
%TD*%
D19*
%TO.C,R242*%
X227584000Y-87122000D03*
D20*
X222504000Y-87122000D03*
%TD*%
D19*
%TO.C,R241*%
X229870000Y-101854000D03*
D20*
X234950000Y-101854000D03*
%TD*%
D14*
%TO.C,R240*%
X202692000Y-130048000D03*
D10*
X210312000Y-130048000D03*
%TD*%
D14*
%TO.C,R239*%
X202692000Y-133350000D03*
D10*
X210312000Y-133350000D03*
%TD*%
D14*
%TO.C,R238*%
X200406000Y-129032000D03*
D10*
X192786000Y-129032000D03*
%TD*%
D14*
%TO.C,R237*%
X210312000Y-136652000D03*
D10*
X202692000Y-136652000D03*
%TD*%
D14*
%TO.C,R236*%
X218694000Y-139700000D03*
D10*
X226314000Y-139700000D03*
%TD*%
D14*
%TO.C,R235*%
X193548000Y-148336000D03*
D10*
X193548000Y-140716000D03*
%TD*%
D14*
%TO.C,R234*%
X225044000Y-145796000D03*
D10*
X217424000Y-145796000D03*
%TD*%
D14*
%TO.C,R233*%
X184658000Y-112268000D03*
D10*
X192278000Y-112268000D03*
%TD*%
D14*
%TO.C,R232*%
X209042000Y-116586000D03*
D10*
X201422000Y-116586000D03*
%TD*%
D19*
%TO.C,R231*%
X193294000Y-122428000D03*
D20*
X193294000Y-117348000D03*
%TD*%
D14*
%TO.C,R230*%
X200406000Y-125730000D03*
D10*
X192786000Y-125730000D03*
%TD*%
D19*
%TO.C,R229*%
X188976000Y-126238000D03*
D20*
X183896000Y-126238000D03*
%TD*%
D14*
%TO.C,R228*%
X182626000Y-123190000D03*
D10*
X190246000Y-123190000D03*
%TD*%
D14*
%TO.C,R227*%
X177546000Y-117856000D03*
D10*
X169926000Y-117856000D03*
%TD*%
D19*
%TO.C,R226*%
X180340000Y-120650000D03*
D20*
X175260000Y-120650000D03*
%TD*%
D14*
%TO.C,R225*%
X173990000Y-126238000D03*
D10*
X181610000Y-126238000D03*
%TD*%
D19*
%TO.C,R224*%
X166370000Y-121158000D03*
D20*
X161290000Y-121158000D03*
%TD*%
D14*
%TO.C,R223*%
X158750000Y-118364000D03*
D10*
X166370000Y-118364000D03*
%TD*%
D14*
%TO.C,R222*%
X159004000Y-115316000D03*
D10*
X151384000Y-115316000D03*
%TD*%
D19*
%TO.C,R221*%
X246888000Y-88900000D03*
D20*
X246888000Y-93980000D03*
%TD*%
D19*
%TO.C,R220*%
X154686000Y-112014000D03*
D20*
X159766000Y-112014000D03*
%TD*%
D14*
%TO.C,R219*%
X152146000Y-106426000D03*
D10*
X159766000Y-106426000D03*
%TD*%
D14*
%TO.C,R218*%
X220218000Y-90678000D03*
D10*
X220218000Y-98298000D03*
%TD*%
D14*
%TO.C,R217*%
X224028000Y-103632000D03*
D10*
X216408000Y-103632000D03*
%TD*%
D14*
%TO.C,R216*%
X205232000Y-95504000D03*
D10*
X197612000Y-95504000D03*
%TD*%
D14*
%TO.C,R215*%
X218948000Y-78486000D03*
D10*
X218948000Y-70866000D03*
%TD*%
D14*
%TO.C,R214*%
X165862000Y-147828000D03*
D10*
X158242000Y-147828000D03*
%TD*%
D14*
%TO.C,R213*%
X165862000Y-144526000D03*
D10*
X158242000Y-144526000D03*
%TD*%
D14*
%TO.C,R212*%
X157734000Y-135128000D03*
D10*
X157734000Y-127508000D03*
%TD*%
D14*
%TO.C,R211*%
X229616000Y-112014000D03*
D10*
X229616000Y-104394000D03*
%TD*%
D14*
%TO.C,R210*%
X223520000Y-98298000D03*
D10*
X223520000Y-90678000D03*
%TD*%
D14*
%TO.C,R209*%
X173736000Y-137668000D03*
D10*
X181356000Y-137668000D03*
%TD*%
D14*
%TO.C,R208*%
X171196000Y-136144000D03*
D10*
X163576000Y-136144000D03*
%TD*%
D19*
%TO.C,R207*%
X182626000Y-106172000D03*
D20*
X182626000Y-111252000D03*
%TD*%
D19*
%TO.C,R206*%
X179578000Y-105410000D03*
D20*
X179578000Y-110490000D03*
%TD*%
D14*
%TO.C,R205*%
X176784000Y-99314000D03*
D10*
X176784000Y-106934000D03*
%TD*%
D19*
%TO.C,R204*%
X174244000Y-103632000D03*
D20*
X174244000Y-98552000D03*
%TD*%
D19*
%TO.C,R203*%
X166878000Y-109982000D03*
D20*
X171958000Y-109982000D03*
%TD*%
D19*
%TO.C,R202*%
X154686000Y-103632000D03*
D20*
X159766000Y-103632000D03*
%TD*%
D19*
%TO.C,R201*%
X159766000Y-98552000D03*
D20*
X154686000Y-98552000D03*
%TD*%
D19*
%TO.C,R109*%
X124206000Y-84074000D03*
D20*
X119126000Y-84074000D03*
%TD*%
D14*
%TO.C,R108*%
X125476000Y-88138000D03*
D10*
X133096000Y-88138000D03*
%TD*%
D14*
%TO.C,R107*%
X133096000Y-91440000D03*
D10*
X122936000Y-91440000D03*
%TD*%
D14*
%TO.C,R106*%
X112522000Y-108204000D03*
D10*
X120142000Y-108204000D03*
%TD*%
D14*
%TO.C,R105*%
X107188000Y-100076000D03*
D10*
X99568000Y-100076000D03*
%TD*%
D14*
%TO.C,R104*%
X122936000Y-106680000D03*
D10*
X130556000Y-106680000D03*
%TD*%
D14*
%TO.C,R103*%
X130556000Y-103632000D03*
D10*
X122936000Y-103632000D03*
%TD*%
D14*
%TO.C,R102*%
X115316000Y-94742000D03*
D10*
X122936000Y-94742000D03*
%TD*%
D14*
%TO.C,R101*%
X115316000Y-100330000D03*
D10*
X122936000Y-100330000D03*
%TD*%
D19*
%TO.C,R9*%
X161544000Y-55118000D03*
D20*
X161544000Y-60198000D03*
%TD*%
D19*
%TO.C,R8*%
X154178000Y-60198000D03*
D20*
X154178000Y-55118000D03*
%TD*%
D19*
%TO.C,R7*%
X159258000Y-62484000D03*
D20*
X154178000Y-62484000D03*
%TD*%
D19*
%TO.C,R6*%
X154178000Y-64770000D03*
D20*
X159258000Y-64770000D03*
%TD*%
D19*
%TO.C,R5*%
X142494000Y-79502000D03*
D20*
X142494000Y-74422000D03*
%TD*%
D19*
%TO.C,R4*%
X139954000Y-74422000D03*
D20*
X139954000Y-79502000D03*
%TD*%
D19*
%TO.C,R3*%
X128778000Y-74422000D03*
D20*
X128778000Y-79502000D03*
%TD*%
D19*
%TO.C,R2*%
X117602000Y-74422000D03*
D20*
X117602000Y-79502000D03*
%TD*%
D19*
%TO.C,R1*%
X106426000Y-74422000D03*
D20*
X106426000Y-79502000D03*
%TD*%
D21*
%TO.C,Q302*%
X169672000Y-73914000D03*
D22*
X169672000Y-76454000D03*
X169672000Y-75184000D03*
%TD*%
D21*
%TO.C,Q301*%
X162814000Y-73914000D03*
D22*
X162814000Y-76454000D03*
X162814000Y-75184000D03*
%TD*%
D21*
%TO.C,Q203*%
X196342000Y-119888000D03*
D22*
X196342000Y-122428000D03*
X196342000Y-121158000D03*
%TD*%
D21*
%TO.C,Q202*%
X169926000Y-121158000D03*
D22*
X169926000Y-123698000D03*
X169926000Y-122428000D03*
%TD*%
D21*
%TO.C,Q201*%
X151384000Y-112014000D03*
D22*
X151384000Y-109474000D03*
X151384000Y-110744000D03*
%TD*%
D21*
%TO.C,Q103*%
X135382000Y-101600000D03*
D22*
X135382000Y-104140000D03*
X135382000Y-102870000D03*
%TD*%
D23*
%TO.C,Q102*%
X109982000Y-102870000D03*
D24*
X112522000Y-102870000D03*
X111252000Y-102870000D03*
%TD*%
D23*
%TO.C,Q101*%
X112522000Y-95250000D03*
D24*
X109982000Y-95250000D03*
X111252000Y-95250000D03*
%TD*%
D25*
%TO.C,J2*%
X257022000Y-79756000D03*
X257022000Y-67056000D03*
X240792000Y-79756000D03*
X240792000Y-67056000D03*
%TD*%
%TO.C,J1*%
X94970000Y-80518000D03*
X94970000Y-67818000D03*
X78740000Y-80518000D03*
X78740000Y-67818000D03*
%TD*%
D26*
%TO.C,D306*%
X212344000Y-78740000D03*
D27*
X209804000Y-78740000D03*
%TD*%
D28*
%TO.C,D305*%
X184912000Y-83058000D03*
D29*
X177292000Y-83058000D03*
%TD*%
D14*
%TO.C,D304*%
X169926000Y-90424000D03*
D15*
X177546000Y-90424000D03*
%TD*%
D14*
%TO.C,D303*%
X177546000Y-87630000D03*
D15*
X169926000Y-87630000D03*
%TD*%
D14*
%TO.C,D302*%
X187198000Y-72390000D03*
D15*
X194818000Y-72390000D03*
%TD*%
D14*
%TO.C,D301*%
X194818000Y-75184000D03*
D15*
X187198000Y-75184000D03*
%TD*%
D14*
%TO.C,D211*%
X182626000Y-129286000D03*
D15*
X190246000Y-129286000D03*
%TD*%
D14*
%TO.C,D210*%
X190246000Y-133604000D03*
D15*
X182626000Y-133604000D03*
%TD*%
D30*
%TO.C,D209*%
X226314000Y-135238000D03*
D31*
X213614000Y-135238000D03*
%TD*%
D30*
%TO.C,D208*%
X213614000Y-129286000D03*
D31*
X226314000Y-129286000D03*
%TD*%
D14*
%TO.C,D207*%
X209804000Y-148590000D03*
D15*
X209804000Y-140970000D03*
%TD*%
D14*
%TO.C,D206*%
X207264000Y-140970000D03*
D15*
X199644000Y-140970000D03*
%TD*%
D14*
%TO.C,D205*%
X199644000Y-143764000D03*
D15*
X207264000Y-143764000D03*
%TD*%
D26*
%TO.C,D204*%
X214122000Y-91694000D03*
D27*
X216662000Y-91694000D03*
%TD*%
D14*
%TO.C,D203*%
X185166000Y-66802000D03*
D15*
X192786000Y-66802000D03*
%TD*%
D26*
%TO.C,D202*%
X176784000Y-131318000D03*
D27*
X179324000Y-131318000D03*
%TD*%
D26*
%TO.C,D201*%
X198120000Y-113030000D03*
D27*
X195580000Y-113030000D03*
%TD*%
D10*
%TO.C,C308*%
X207486000Y-89916000D03*
D15*
X205486000Y-89916000D03*
%TD*%
D10*
%TO.C,C307*%
X189960000Y-91186000D03*
D15*
X187960000Y-91186000D03*
%TD*%
D10*
%TO.C,C306*%
X202104000Y-88138000D03*
X197104000Y-88138000D03*
%TD*%
%TO.C,C305*%
X210344000Y-71120000D03*
D15*
X212344000Y-71120000D03*
%TD*%
D10*
%TO.C,C304*%
X194898000Y-84836000D03*
X199898000Y-84836000D03*
%TD*%
%TO.C,C303*%
X184872000Y-72390000D03*
X182372000Y-72390000D03*
%TD*%
%TO.C,C302*%
X164552000Y-82804000D03*
X162052000Y-82804000D03*
%TD*%
%TO.C,C301*%
X157012000Y-74168000D03*
X159512000Y-74168000D03*
%TD*%
%TO.C,C238*%
X222536000Y-78486000D03*
D15*
X224536000Y-78486000D03*
%TD*%
D10*
%TO.C,C237*%
X240244000Y-100330000D03*
D15*
X237744000Y-100330000D03*
%TD*%
D10*
%TO.C,C236*%
X242570000Y-88980000D03*
X242570000Y-93980000D03*
%TD*%
%TO.C,C235*%
X227290000Y-122936000D03*
D15*
X224790000Y-122936000D03*
%TD*%
D10*
%TO.C,C234*%
X231648000Y-120364000D03*
D15*
X231648000Y-118364000D03*
%TD*%
D10*
%TO.C,C233*%
X182594000Y-101600000D03*
D15*
X180594000Y-101600000D03*
%TD*%
D10*
%TO.C,C232*%
X254476000Y-99568000D03*
D15*
X252476000Y-99568000D03*
%TD*%
D10*
%TO.C,C231*%
X213392000Y-140970000D03*
D15*
X215392000Y-140970000D03*
%TD*%
D10*
%TO.C,C230*%
X190286000Y-136398000D03*
X192786000Y-136398000D03*
%TD*%
%TO.C,C229*%
X213186000Y-118872000D03*
X218186000Y-118872000D03*
%TD*%
%TO.C,C228*%
X211408000Y-109982000D03*
X216408000Y-109982000D03*
%TD*%
%TO.C,C227*%
X199358000Y-135128000D03*
D15*
X197358000Y-135128000D03*
%TD*%
D10*
%TO.C,C226*%
X213614000Y-122206000D03*
D15*
X213614000Y-124206000D03*
%TD*%
D10*
%TO.C,C225*%
X197104000Y-145970000D03*
X197104000Y-140970000D03*
%TD*%
%TO.C,C224*%
X217344000Y-148590000D03*
X212344000Y-148590000D03*
%TD*%
%TO.C,C223*%
X186658000Y-118618000D03*
D15*
X184658000Y-118618000D03*
%TD*%
D10*
%TO.C,C222*%
X190246000Y-120316000D03*
X190246000Y-115316000D03*
%TD*%
%TO.C,C221*%
X175340000Y-123190000D03*
X180340000Y-123190000D03*
%TD*%
%TO.C,C220*%
X166290000Y-123952000D03*
X161290000Y-123952000D03*
%TD*%
%TO.C,C219*%
X151464000Y-118110000D03*
X156464000Y-118110000D03*
%TD*%
%TO.C,C218*%
X248634000Y-99568000D03*
D15*
X246634000Y-99568000D03*
%TD*%
D10*
%TO.C,C217*%
X159686000Y-109474000D03*
X154686000Y-109474000D03*
%TD*%
%TO.C,C216*%
X253275775Y-92062000D03*
D15*
X251275775Y-92062000D03*
%TD*%
D10*
%TO.C,C215*%
X226742000Y-73152000D03*
X221742000Y-73152000D03*
%TD*%
%TO.C,C214*%
X218948000Y-81566000D03*
D15*
X218948000Y-83566000D03*
%TD*%
D10*
%TO.C,C213*%
X155702000Y-144446000D03*
X155702000Y-139446000D03*
%TD*%
%TO.C,C212*%
X173148000Y-147828000D03*
X168148000Y-147828000D03*
%TD*%
%TO.C,C211*%
X160782000Y-135716000D03*
X160782000Y-140716000D03*
%TD*%
%TO.C,C210*%
X226984000Y-117168000D03*
X226984000Y-112168000D03*
%TD*%
%TO.C,C209*%
X171704000Y-130588000D03*
D15*
X171704000Y-132588000D03*
%TD*%
D10*
%TO.C,C206*%
X182078000Y-115570000D03*
X179578000Y-115570000D03*
%TD*%
%TO.C,C205*%
X179284000Y-94996000D03*
X176784000Y-94996000D03*
%TD*%
%TO.C,C204*%
X176752000Y-113030000D03*
D15*
X174752000Y-113030000D03*
%TD*%
D10*
%TO.C,C203*%
X166584000Y-95758000D03*
X164084000Y-95758000D03*
%TD*%
%TO.C,C202*%
X162092000Y-109982000D03*
X164592000Y-109982000D03*
%TD*%
%TO.C,C201*%
X159686000Y-101092000D03*
X154686000Y-101092000D03*
%TD*%
%TO.C,C107*%
X145288000Y-101124000D03*
D15*
X145288000Y-103124000D03*
%TD*%
D10*
%TO.C,C106*%
X134660000Y-107442000D03*
X137160000Y-107442000D03*
%TD*%
%TO.C,C105*%
X106204000Y-108204000D03*
D15*
X108204000Y-108204000D03*
%TD*%
D10*
%TO.C,C104*%
X127984000Y-97536000D03*
D15*
X125984000Y-97536000D03*
%TD*%
D10*
%TO.C,C103*%
X120316000Y-97536000D03*
X115316000Y-97536000D03*
%TD*%
%TO.C,C102*%
X109554000Y-86614000D03*
X114554000Y-86614000D03*
%TD*%
%TO.C,C101*%
X109514000Y-83566000D03*
X112014000Y-83566000D03*
%TD*%
%TO.C,C2*%
X166544000Y-62484000D03*
X161544000Y-62484000D03*
%TD*%
%TO.C,C1*%
X164338000Y-57618000D03*
X164338000Y-55118000D03*
%TD*%
M02*
