M48
; DRILL file {KiCad (5.1.12)-1} date 01/02/22 20:18:48
; FORMAT={-:-/ absolute / metric / decimal}
; #@! TF.CreationDate,2022-01-02T20:18:48-05:00
; #@! TF.GenerationSoftware,Kicad,Pcbnew,(5.1.12)-1
; #@! TF.FileFunction,Plated,1,2,PTH
FMAT,2
METRIC
T1C0.400
T2C0.700
T3C0.750
T4C0.762
T5C0.800
T6C0.900
T7C1.000
T8C1.100
T9C1.400
T10C1.500
%
G90
G05
T1
X119.38Y-63.5
X119.38Y-73.66
X119.38Y-83.82
X119.38Y-91.44
X119.38Y-99.06
X127.0Y-63.5
X127.0Y-73.66
X127.0Y-83.82
X127.0Y-91.44
X127.0Y-99.06
X134.62Y-63.5
X134.62Y-73.66
X134.62Y-83.82
X134.62Y-91.44
X134.62Y-99.06
X144.78Y-63.5
X144.78Y-73.66
X144.78Y-83.82
X144.78Y-91.44
X144.78Y-99.06
T2
X189.865Y-142.24
X189.865Y-147.32
T3
X104.14Y-119.38
X104.14Y-120.65
X104.14Y-121.92
X122.555Y-123.19
X123.825Y-123.19
X125.095Y-123.19
X125.73Y-114.935
X127.0Y-114.935
X128.27Y-114.935
X147.955Y-111.76
X149.225Y-111.76
X150.495Y-111.76
X154.94Y-142.875
X154.94Y-144.145
X154.94Y-145.415
X187.96Y-78.105
X189.23Y-78.105
X189.865Y-137.16
X189.865Y-138.43
X189.865Y-139.7
X190.5Y-78.105
X197.485Y-74.93
X198.755Y-74.93
X200.025Y-74.93
T4
X147.955Y-75.565
X147.955Y-78.105
X147.955Y-80.645
X147.955Y-83.185
X147.955Y-85.725
X147.955Y-88.265
T5
X83.82Y-123.19
X83.82Y-127.0
X83.82Y-130.81
X88.82Y-123.19
X91.44Y-127.0
X91.44Y-130.81
X97.83Y-127.0
X100.33Y-127.0
X104.14Y-127.0
X105.41Y-53.975
X105.95Y-93.98
X106.045Y-80.645
X106.045Y-101.6
X106.045Y-107.95
X106.085Y-86.995
X106.68Y-57.785
X106.68Y-60.325
X106.68Y-62.865
X106.68Y-65.405
X107.95Y-93.98
X108.045Y-80.645
X108.045Y-101.6
X108.545Y-107.95
X108.585Y-86.995
X111.76Y-123.19
X111.76Y-127.0
X112.3Y-118.11
X114.3Y-57.785
X114.3Y-60.325
X114.3Y-62.865
X114.3Y-65.405
X114.3Y-118.11
X115.57Y-53.975
X115.57Y-133.35
X115.57Y-135.89
X115.57Y-138.43
X115.57Y-140.97
X116.88Y-127.0
X118.11Y-53.975
X119.38Y-123.19
X119.38Y-127.0
X121.92Y-127.0
X121.92Y-130.175
X122.555Y-111.76
X122.555Y-119.38
X123.19Y-133.35
X123.19Y-135.89
X123.19Y-138.43
X123.19Y-140.97
X125.095Y-110.49
X125.095Y-118.745
X125.135Y-107.315
X127.635Y-107.315
X128.27Y-53.975
X128.27Y-145.415
X128.905Y-135.255
X128.905Y-137.255
X128.905Y-139.255
X129.54Y-127.0
X129.54Y-130.175
X130.81Y-53.975
X130.81Y-57.15
X130.81Y-104.14
X130.81Y-107.315
X130.81Y-145.415
X131.445Y-114.935
X131.445Y-123.825
X132.715Y-110.49
X132.715Y-118.745
X133.35Y-132.08
X133.35Y-139.7
X133.35Y-145.415
X133.985Y-123.825
X135.295Y-111.125
X135.89Y-145.415
X136.525Y-123.825
X136.525Y-132.08
X137.795Y-111.125
X138.335Y-137.795
X138.47Y-142.24
X138.525Y-132.08
X139.065Y-114.935
X139.7Y-125.095
X139.7Y-127.595
X140.335Y-137.795
X140.97Y-53.975
X140.97Y-57.15
X140.97Y-104.14
X140.97Y-107.315
X140.97Y-120.65
X140.97Y-142.24
X141.01Y-148.59
X141.605Y-110.49
X141.605Y-118.11
X142.24Y-125.095
X142.24Y-127.635
X142.24Y-130.175
X142.24Y-132.715
X143.51Y-53.34
X143.51Y-58.42
X143.51Y-104.14
X143.51Y-107.315
X143.51Y-139.065
X143.51Y-142.24
X143.51Y-145.415
X143.51Y-148.59
X144.78Y-110.49
X144.78Y-118.11
X146.05Y-53.34
X146.05Y-58.42
X146.05Y-135.89
X146.05Y-145.415
X147.955Y-65.405
X147.955Y-73.025
X148.495Y-116.84
X148.59Y-53.34
X148.59Y-58.42
X148.59Y-120.65
X149.352Y-94.996
X149.352Y-96.996
X149.352Y-98.996
X149.86Y-125.095
X149.86Y-127.635
X149.86Y-130.175
X149.86Y-132.715
X150.495Y-116.84
X151.05Y-135.89
X151.05Y-145.415
X151.13Y-65.405
X151.13Y-73.025
X151.13Y-77.47
X151.13Y-104.14
X151.13Y-107.315
X151.13Y-139.065
X151.13Y-142.24
X153.13Y-77.47
X153.67Y-53.34
X153.67Y-58.42
X153.67Y-124.46
X153.67Y-132.08
X153.67Y-134.62
X155.575Y-100.33
X155.575Y-116.84
X155.575Y-119.38
X155.575Y-121.92
X155.615Y-93.345
X155.67Y-53.34
X155.67Y-58.42
X156.17Y-134.62
X156.21Y-108.585
X156.21Y-111.125
X156.21Y-113.665
X156.845Y-124.46
X156.845Y-132.08
X157.67Y-53.34
X157.67Y-58.42
X158.115Y-83.185
X158.115Y-89.535
X158.115Y-93.345
X158.115Y-100.33
X158.155Y-86.36
X158.75Y-144.145
X158.75Y-147.32
X159.385Y-119.46
X159.385Y-124.46
X160.655Y-78.74
X160.655Y-86.36
X160.655Y-100.33
X160.655Y-107.315
X160.655Y-111.76
X160.655Y-114.935
X160.655Y-138.43
X160.655Y-140.43
X161.29Y-130.175
X161.29Y-132.715
X161.29Y-135.255
X161.925Y-119.38
X162.56Y-53.34
X162.655Y-107.315
X163.195Y-78.74
X163.195Y-99.06
X163.195Y-125.73
X163.83Y-57.15
X163.83Y-59.69
X163.83Y-93.25
X163.83Y-95.25
X165.1Y-53.34
X165.195Y-125.73
X165.735Y-78.74
X165.735Y-83.185
X165.735Y-89.535
X166.37Y-144.145
X166.37Y-147.32
X167.005Y-130.175
X167.005Y-132.715
X167.005Y-140.335
X167.64Y-53.34
X167.64Y-104.14
X168.275Y-90.17
X168.275Y-92.71
X168.275Y-95.25
X168.275Y-108.585
X168.275Y-111.76
X168.275Y-114.935
X168.275Y-123.19
X168.91Y-83.185
X169.545Y-119.38
X169.64Y-104.14
X170.18Y-53.975
X170.18Y-132.715
X170.18Y-140.335
X170.815Y-99.06
X170.91Y-83.185
X171.45Y-57.15
X171.45Y-59.69
X172.005Y-130.175
X173.355Y-86.36
X173.355Y-99.06
X173.355Y-104.14
X173.355Y-111.76
X173.355Y-119.38
X173.895Y-140.335
X175.355Y-104.14
X175.855Y-86.36
X175.895Y-90.17
X175.895Y-92.71
X175.895Y-95.25
X175.895Y-108.585
X175.895Y-111.76
X175.895Y-119.38
X175.895Y-123.19
X175.895Y-140.335
X176.53Y-73.025
X177.8Y-53.975
X177.8Y-77.47
X177.8Y-126.365
X178.054Y-123.19
X178.435Y-83.185
X178.435Y-86.36
X178.435Y-89.535
X178.435Y-92.71
X178.435Y-95.885
X178.435Y-102.235
X178.435Y-108.585
X178.435Y-111.76
X178.435Y-119.38
X178.515Y-105.41
X179.07Y-73.025
X179.07Y-137.16
X179.07Y-140.335
X179.07Y-143.51
X180.975Y-53.975
X180.975Y-61.595
X180.975Y-111.76
X180.975Y-119.38
X181.61Y-73.025
X182.975Y-53.975
X182.975Y-61.595
X183.435Y-108.585
X183.515Y-71.12
X183.515Y-99.06
X183.515Y-105.41
X183.515Y-111.76
X183.515Y-119.38
X185.42Y-77.47
X185.42Y-126.365
X185.674Y-123.19
X186.055Y-89.535
X186.055Y-92.71
X186.055Y-95.885
X186.055Y-102.235
X186.055Y-108.585
X186.055Y-111.76
X186.055Y-119.38
X186.69Y-53.34
X186.69Y-55.88
X186.69Y-58.42
X186.69Y-60.96
X186.69Y-64.135
X186.69Y-67.31
X186.69Y-105.41
X186.69Y-137.16
X186.69Y-140.335
X186.69Y-143.51
X187.96Y-124.46
X188.595Y-83.185
X188.595Y-86.36
X188.595Y-95.885
X188.595Y-111.76
X188.595Y-119.38
X188.635Y-74.295
X188.675Y-89.535
X189.23Y-100.838
X189.865Y-131.445
X189.865Y-133.445
X190.46Y-124.46
X191.135Y-71.12
X191.135Y-74.295
X191.23Y-100.838
X191.77Y-115.57
X191.77Y-119.38
X193.04Y-124.46
X193.675Y-89.535
X193.675Y-108.585
X194.27Y-119.38
X194.31Y-53.34
X194.31Y-55.88
X194.31Y-58.42
X194.31Y-60.96
X194.31Y-64.135
X194.31Y-67.31
X194.31Y-70.485
X194.31Y-75.485
X194.31Y-78.105
X194.31Y-85.725
X194.31Y-105.41
X195.58Y-131.445
X195.58Y-133.985
X195.58Y-136.525
X196.215Y-95.885
X196.85Y-67.31
X197.485Y-53.975
X197.485Y-57.15
X197.485Y-62.865
X197.485Y-78.145
X197.485Y-80.645
X197.485Y-105.41
X199.39Y-115.57
X199.485Y-105.41
X200.025Y-62.865
X201.295Y-129.985
X201.295Y-131.985
X201.295Y-133.985
X202.485Y-57.15
X202.565Y-62.865
X202.565Y-115.57
X203.2Y-124.46
X204.47Y-67.31
X204.565Y-115.57
X205.105Y-53.975
X206.375Y-129.985
X206.375Y-131.985
X206.375Y-133.985
X207.645Y-53.975
X207.645Y-61.595
T6
X109.22Y-133.35
X109.22Y-135.89
X174.625Y-66.675
X177.165Y-66.675
T8
X93.98Y-101.6
X93.98Y-105.41
X93.98Y-109.22
X101.6Y-101.6
X101.6Y-105.41
X101.6Y-109.22
X151.765Y-83.185
X151.765Y-85.725
X151.765Y-88.265
T9
X83.82Y-53.34
X83.82Y-69.57
X83.82Y-133.985
X83.82Y-150.215
X96.52Y-53.34
X96.52Y-69.57
X96.52Y-133.985
X96.52Y-150.215
T10
X128.905Y-133.155
X128.905Y-141.355
X149.352Y-92.896
X149.352Y-101.096
X151.57Y-53.34
X151.57Y-58.42
X159.77Y-53.34
X159.77Y-58.42
X201.295Y-127.885
X201.295Y-136.085
X206.375Y-127.885
X206.375Y-136.085
T7
G00X84.17Y-98.06
M15
G01X84.17Y-100.06
M16
G05
G00X86.17Y-103.76
M15
G01X88.17Y-103.76
M16
G05
G00X90.17Y-98.06
M15
G01X90.17Y-100.06
M16
G05
T0
M30
